<svg xmlns="http://www.w3.org/2000/svg" width="1080" height="560" viewBox="0 0 1080 560"><rect width="100%" height="100%" fill="#fffdf8"/><style>text{font-family:Arial,sans-serif;fill:#17202a}.small{font-size:13px}.title{font-size:17px;font-weight:600}.grid{stroke:#d9dde2;stroke-width:1}</style><text x="540.0" y="30" text-anchor="middle" class="title">Correct answers per question, 3 AI readers per arm (sealed key)</text><rect x="330" y="48" width="14" height="14" fill="#9aa5b1"/><text x="350" y="60" class="small">BASE: note as first published</text><rect x="590" y="48" width="14" height="14" fill="#1f6f5c"/><text x="610" y="60" class="small">CURR: note after EP-0027 correction</text><line x1="330" y1="90" x2="330" y2="496" class="grid"/><text x="330" y="514" text-anchor="middle" class="small">0</text><line x1="440" y1="90" x2="440" y2="496" class="grid"/><text x="440" y="514" text-anchor="middle" class="small">1</text><line x1="550" y1="90" x2="550" y2="496" class="grid"/><text x="550" y="514" text-anchor="middle" class="small">2</text><line x1="660" y1="90" x2="660" y2="496" class="grid"/><text x="660" y="514" text-anchor="middle" class="small">3</text><text x="318" y="122" text-anchor="end" class="small">Q1 240/240 refusal</text><rect x="330" y="106" width="330" height="13" fill="#9aa5b1"/><text x="666" y="117" class="small">3/3</text><rect x="330" y="122" width="330" height="13" fill="#1f6f5c"/><text x="666" y="133" class="small">3/3</text><text x="318" y="166" text-anchor="end" class="small">Q2 80/80 wrong at 100k</text><rect x="330" y="150" width="330" height="13" fill="#9aa5b1"/><text x="666" y="161" class="small">3/3</text><rect x="330" y="166" width="220" height="13" fill="#1f6f5c"/><text x="556" y="177" class="small">2/3</text><text x="318" y="210" text-anchor="end" class="small">Q3 eventual tail vs window</text><rect x="330" y="194" width="330" height="13" fill="#9aa5b1"/><text x="666" y="205" class="small">3/3</text><rect x="330" y="210" width="330" height="13" fill="#1f6f5c"/><text x="666" y="221" class="small">3/3</text><text x="318" y="254" text-anchor="end" class="small">Q4 no drift detection*</text><rect x="330" y="238" width="2" height="13" fill="#9aa5b1"/><text x="336" y="249" class="small">0/3</text><rect x="330" y="254" width="110" height="13" fill="#1f6f5c"/><text x="446" y="265" class="small">1/3</text><text x="318" y="298" text-anchor="end" class="small">Q5 service improve at 320k</text><rect x="330" y="282" width="330" height="13" fill="#9aa5b1"/><text x="666" y="293" class="small">3/3</text><rect x="330" y="298" width="330" height="13" fill="#1f6f5c"/><text x="666" y="309" class="small">3/3</text><text x="318" y="342" text-anchor="end" class="small">Q6 seed dependence</text><rect x="330" y="326" width="2" height="13" fill="#9aa5b1"/><text x="336" y="337" class="small">0/3</text><rect x="330" y="342" width="330" height="13" fill="#1f6f5c"/><text x="666" y="353" class="small">3/3</text><text x="318" y="386" text-anchor="end" class="small">Q7 label source*</text><rect x="330" y="370" width="220" height="13" fill="#9aa5b1"/><text x="556" y="381" class="small">2/3</text><rect x="330" y="386" width="2" height="13" fill="#1f6f5c"/><text x="336" y="397" class="small">0/3</text><text x="318" y="430" text-anchor="end" class="small">Q8 claims not made</text><rect x="330" y="414" width="330" height="13" fill="#9aa5b1"/><text x="666" y="425" class="small">3/3</text><rect x="330" y="430" width="330" height="13" fill="#1f6f5c"/><text x="666" y="441" class="small">3/3</text><text x="318" y="474" text-anchor="end" class="small">Q9 72 regenerated looks</text><rect x="330" y="458" width="2" height="13" fill="#9aa5b1"/><text x="336" y="469" class="small">0/3</text><rect x="330" y="474" width="330" height="13" fill="#1f6f5c"/><text x="666" y="485" class="small">3/3</text><text x="540.0" y="536" text-anchor="middle" class="small">* The sealed key required specific phrasing on Q4 and Q7; most misses there are key artifacts (see note). Q9 is forced by the text.</text></svg>