<svg xmlns="http://www.w3.org/2000/svg" width="1080" height="560" viewBox="0 0 1080 560"><rect width="100%" height="100%" fill="#fffdf8"/><style>text{font-family:Arial,sans-serif;fill:#17202a}.small{font-size:13px}.tiny{font-size:10px}.title{font-size:17px;font-weight:600}</style><text x="540" y="30" text-anchor="middle" class="title">Chart #3 (14 x 31 cells): the two fold lines cross six K4 cells and 22 K3 cells</text><rect x="150" y="62" width="24" height="24" fill="#d5dbe1" stroke="#ffffff" stroke-width="1"/><rect x="174" y="62" width="24" height="24" fill="#d5dbe1" stroke="#ffffff" stroke-width="1"/><rect x="198" y="62" width="24" height="24" fill="#d5dbe1" stroke="#ffffff" stroke-width="1"/><rect x="222" y="62" width="24" height="24" fill="#d5dbe1" stroke="#ffffff" stroke-width="1"/><rect x="246" y="62" width="24" height="24" fill="#d5dbe1" stroke="#ffffff" stroke-width="1"/><rect x="270" y="62" width="24" height="24" fill="#d5dbe1" stroke="#ffffff" stroke-width="1"/><rect x="294" y="62" width="24" height="24" fill="#d5dbe1" stroke="#ffffff" stroke-width="1"/><rect x="318" y="62" width="24" height="24" fill="#d5dbe1" stroke="#ffffff" stroke-width="1"/><rect x="342" y="62" width="24" height="24" fill="#d5dbe1" stroke="#ffffff" stroke-width="1"/><rect x="366" y="62" width="24" height="24" fill="#d5dbe1" stroke="#ffffff" stroke-width="1"/><rect x="390" y="62" width="24" height="24" fill="#d5dbe1" stroke="#ffffff" stroke-width="1"/><rect x="414" y="62" width="24" height="24" fill="#d5dbe1" stroke="#ffffff" stroke-width="1"/><rect x="438" y="62" width="24" height="24" fill="#d5dbe1" stroke="#ffffff" stroke-width="1"/><rect x="462" y="62" width="24" height="24" fill="#d5dbe1" stroke="#ffffff" stroke-width="1"/><rect x="486" y="62" width="24" height="24" fill="#d5dbe1" stroke="#ffffff" stroke-width="1"/><rect x="510" y="62" width="24" height="24" fill="#d5dbe1" stroke="#ffffff" stroke-width="1"/><rect x="534" y="62" width="24" height="24" fill="#d5dbe1" stroke="#ffffff" stroke-width="1"/><rect x="558" y="62" width="24" height="24" fill="#d5dbe1" stroke="#ffffff" stroke-width="1"/><rect x="582" y="62" width="24" height="24" fill="#d5dbe1" stroke="#ffffff" stroke-width="1"/><rect x="606" y="62" width="24" height="24" fill="#d5dbe1" stroke="#ffffff" stroke-width="1"/><rect x="630" y="62" width="24" height="24" fill="#d5dbe1" stroke="#ffffff" stroke-width="1"/><rect x="654" y="62" width="24" height="24" fill="#d5dbe1" stroke="#ffffff" stroke-width="1"/><rect x="678" y="62" width="24" height="24" fill="#d5dbe1" stroke="#ffffff" stroke-width="1"/><rect x="702" y="62" width="24" height="24" fill="#d5dbe1" stroke="#ffffff" stroke-width="1"/><rect x="726" y="62" width="24" height="24" fill="#d5dbe1" stroke="#ffffff" stroke-width="1"/><rect x="750" y="62" width="24" height="24" fill="#d5dbe1" stroke="#ffffff" stroke-width="1"/><rect x="774" y="62" width="24" height="24" fill="#d5dbe1" stroke="#ffffff" stroke-width="1"/><rect x="798" y="62" width="24" height="24" fill="#d5dbe1" stroke="#ffffff" stroke-width="1"/><rect x="822" y="62" width="24" height="24" fill="#d5dbe1" stroke="#ffffff" stroke-width="1"/><rect x="846" y="62" width="24" height="24" fill="#d5dbe1" stroke="#ffffff" stroke-width="1"/><rect x="870" y="62" width="24" height="24" fill="#d5dbe1" stroke="#ffffff" stroke-width="1"/><rect x="150" y="86" width="24" height="24" fill="#d5dbe1" stroke="#ffffff" stroke-width="1"/><rect x="174" y="86" width="24" height="24" fill="#d5dbe1" stroke="#ffffff" stroke-width="1"/><rect x="198" y="86" width="24" height="24" fill="#d5dbe1" stroke="#ffffff" stroke-width="1"/><rect x="222" y="86" width="24" height="24" fill="#d5dbe1" stroke="#ffffff" stroke-width="1"/><rect x="246" y="86" width="24" height="24" fill="#d5dbe1" stroke="#ffffff" stroke-width="1"/><rect x="270" y="86" width="24" height="24" fill="#d5dbe1" stroke="#ffffff" stroke-width="1"/><rect x="294" y="86" width="24" height="24" fill="#d5dbe1" stroke="#ffffff" stroke-width="1"/><rect x="318" y="86" width="24" height="24" fill="#d5dbe1" stroke="#ffffff" stroke-width="1"/><rect x="342" y="86" width="24" height="24" fill="#d5dbe1" stroke="#ffffff" stroke-width="1"/><rect x="366" y="86" width="24" height="24" fill="#d5dbe1" stroke="#ffffff" stroke-width="1"/><rect x="390" y="86" width="24" height="24" fill="#d5dbe1" stroke="#ffffff" stroke-width="1"/><rect x="414" y="86" width="24" height="24" fill="#d5dbe1" stroke="#ffffff" stroke-width="1"/><rect x="438" y="86" width="24" height="24" fill="#d5dbe1" stroke="#ffffff" stroke-width="1"/><rect x="462" y="86" width="24" height="24" fill="#d5dbe1" stroke="#ffffff" stroke-width="1"/><rect x="486" y="86" width="24" height="24" fill="#d5dbe1" stroke="#ffffff" stroke-width="1"/><rect x="510" y="86" width="24" height="24" fill="#d5dbe1" stroke="#ffffff" stroke-width="1"/><rect x="534" y="86" width="24" height="24" fill="#d5dbe1" stroke="#ffffff" stroke-width="1"/><rect x="558" y="86" width="24" height="24" fill="#d5dbe1" stroke="#ffffff" stroke-width="1"/><rect x="582" y="86" width="24" height="24" fill="#d5dbe1" stroke="#ffffff" stroke-width="1"/><rect x="606" y="86" width="24" height="24" fill="#d5dbe1" stroke="#ffffff" stroke-width="1"/><rect x="630" y="86" width="24" height="24" fill="#d5dbe1" stroke="#ffffff" stroke-width="1"/><rect x="654" y="86" width="24" height="24" fill="#d5dbe1" stroke="#ffffff" stroke-width="1"/><rect x="678" y="86" width="24" height="24" fill="#d5dbe1" stroke="#ffffff" stroke-width="1"/><rect x="702" y="86" width="24" height="24" fill="#d5dbe1" stroke="#ffffff" stroke-width="1"/><rect x="726" y="86" width="24" height="24" fill="#d5dbe1" stroke="#ffffff" stroke-width="1"/><rect x="750" y="86" width="24" height="24" fill="#d5dbe1" stroke="#ffffff" stroke-width="1"/><rect x="774" y="86" width="24" height="24" fill="#d5dbe1" stroke="#ffffff" stroke-width="1"/><rect x="798" y="86" width="24" height="24" fill="#d5dbe1" stroke="#ffffff" stroke-width="1"/><rect x="822" y="86" width="24" height="24" fill="#d5dbe1" stroke="#ffffff" stroke-width="1"/><rect x="846" y="86" width="24" height="24" fill="#d5dbe1" stroke="#ffffff" stroke-width="1"/><rect x="870" y="86" width="24" height="24" fill="#d5dbe1" stroke="#ffffff" stroke-width="1"/><rect x="150" y="110" width="24" height="24" fill="#d5dbe1" stroke="#ffffff" stroke-width="1"/><rect x="174" y="110" width="24" height="24" fill="#d5dbe1" stroke="#ffffff" stroke-width="1"/><rect x="198" y="110" width="24" height="24" fill="#d5dbe1" stroke="#ffffff" stroke-width="1"/><rect x="222" y="110" width="24" height="24" fill="#d5dbe1" stroke="#ffffff" stroke-width="1"/><rect x="246" y="110" width="24" height="24" fill="#d5dbe1" stroke="#ffffff" stroke-width="1"/><rect x="270" y="110" width="24" height="24" fill="#d5dbe1" stroke="#ffffff" stroke-width="1"/><rect x="294" y="110" width="24" height="24" fill="#d5dbe1" stroke="#ffffff" stroke-width="1"/><rect x="318" y="110" width="24" height="24" fill="#d5dbe1" stroke="#ffffff" stroke-width="1"/><rect x="342" y="110" width="24" height="24" fill="#d5dbe1" stroke="#ffffff" stroke-width="1"/><rect x="366" y="110" width="24" height="24" fill="#d5dbe1" stroke="#ffffff" stroke-width="1"/><rect x="390" y="110" width="24" height="24" fill="#d5dbe1" stroke="#ffffff" stroke-width="1"/><rect x="414" y="110" width="24" height="24" fill="#d5dbe1" stroke="#ffffff" stroke-width="1"/><rect x="438" y="110" width="24" height="24" fill="#d5dbe1" stroke="#ffffff" stroke-width="1"/><rect x="462" y="110" width="24" height="24" fill="#d5dbe1" stroke="#ffffff" stroke-width="1"/><rect x="486" y="110" width="24" height="24" fill="#d5dbe1" stroke="#ffffff" stroke-width="1"/><rect x="510" y="110" width="24" height="24" fill="#d5dbe1" stroke="#ffffff" stroke-width="1"/><rect x="534" y="110" width="24" height="24" fill="#d5dbe1" stroke="#ffffff" stroke-width="1"/><rect x="558" y="110" width="24" height="24" fill="#d5dbe1" stroke="#ffffff" stroke-width="1"/><rect x="582" y="110" width="24" height="24" fill="#d5dbe1" stroke="#ffffff" stroke-width="1"/><rect x="606" y="110" width="24" height="24" fill="#d5dbe1" stroke="#ffffff" stroke-width="1"/><rect x="630" y="110" width="24" height="24" fill="#d5dbe1" stroke="#ffffff" stroke-width="1"/><rect x="654" y="110" width="24" height="24" fill="#d5dbe1" stroke="#ffffff" stroke-width="1"/><rect x="678" y="110" width="24" height="24" fill="#d5dbe1" stroke="#ffffff" stroke-width="1"/><rect x="702" y="110" width="24" height="24" fill="#d5dbe1" stroke="#ffffff" stroke-width="1"/><rect x="726" y="110" width="24" height="24" fill="#d5dbe1" stroke="#ffffff" stroke-width="1"/><rect x="750" y="110" width="24" height="24" fill="#d5dbe1" stroke="#ffffff" stroke-width="1"/><rect x="774" y="110" width="24" height="24" fill="#d5dbe1" stroke="#ffffff" stroke-width="1"/><rect x="798" y="110" width="24" height="24" fill="#d5dbe1" stroke="#ffffff" stroke-width="1"/><rect x="822" y="110" width="24" height="24" fill="#d5dbe1" stroke="#ffffff" stroke-width="1"/><rect x="846" y="110" width="24" height="24" fill="#d5dbe1" stroke="#ffffff" stroke-width="1"/><rect x="870" y="110" width="24" height="24" fill="#d5dbe1" stroke="#ffffff" stroke-width="1"/><rect x="150" y="134" width="24" height="24" fill="#d5dbe1" stroke="#ffffff" stroke-width="1"/><rect x="174" y="134" width="24" height="24" fill="#d5dbe1" stroke="#ffffff" stroke-width="1"/><rect x="198" y="134" width="24" height="24" fill="#d5dbe1" stroke="#ffffff" stroke-width="1"/><rect x="222" y="134" width="24" height="24" fill="#d5dbe1" stroke="#ffffff" stroke-width="1"/><rect x="246" y="134" width="24" height="24" fill="#d5dbe1" stroke="#ffffff" stroke-width="1"/><rect x="270" y="134" width="24" height="24" fill="#d5dbe1" stroke="#ffffff" stroke-width="1"/><rect x="294" y="134" width="24" height="24" fill="#d5dbe1" stroke="#ffffff" stroke-width="1"/><rect x="318" y="134" width="24" height="24" fill="#d5dbe1" stroke="#ffffff" stroke-width="1"/><rect x="342" y="134" width="24" height="24" fill="#d5dbe1" stroke="#ffffff" stroke-width="1"/><rect x="366" y="134" width="24" height="24" fill="#d5dbe1" stroke="#ffffff" stroke-width="1"/><rect x="390" y="134" width="24" height="24" fill="#d5dbe1" stroke="#ffffff" stroke-width="1"/><rect x="414" y="134" width="24" height="24" fill="#d5dbe1" stroke="#ffffff" stroke-width="1"/><rect x="438" y="134" width="24" height="24" fill="#d5dbe1" stroke="#ffffff" stroke-width="1"/><rect x="462" y="134" width="24" height="24" fill="#d5dbe1" stroke="#ffffff" stroke-width="1"/><rect x="486" y="134" width="24" height="24" fill="#d5dbe1" stroke="#ffffff" stroke-width="1"/><rect x="510" y="134" width="24" height="24" fill="#d5dbe1" stroke="#ffffff" stroke-width="1"/><rect x="534" y="134" width="24" height="24" fill="#d5dbe1" stroke="#ffffff" stroke-width="1"/><rect x="558" y="134" width="24" height="24" fill="#d5dbe1" stroke="#ffffff" stroke-width="1"/><rect x="582" y="134" width="24" height="24" fill="#d5dbe1" stroke="#ffffff" stroke-width="1"/><rect x="606" y="134" width="24" height="24" fill="#d5dbe1" stroke="#ffffff" stroke-width="1"/><rect x="630" y="134" width="24" height="24" fill="#d5dbe1" stroke="#ffffff" stroke-width="1"/><rect x="654" y="134" width="24" height="24" fill="#d5dbe1" stroke="#ffffff" stroke-width="1"/><rect x="678" y="134" width="24" height="24" fill="#d5dbe1" stroke="#ffffff" stroke-width="1"/><rect x="702" y="134" width="24" height="24" fill="#d5dbe1" stroke="#ffffff" stroke-width="1"/><rect x="726" y="134" width="24" height="24" fill="#d5dbe1" stroke="#ffffff" stroke-width="1"/><rect x="750" y="134" width="24" height="24" fill="#d5dbe1" stroke="#ffffff" stroke-width="1"/><rect x="774" y="134" width="24" height="24" fill="#d5dbe1" stroke="#ffffff" stroke-width="1"/><rect x="798" y="134" width="24" height="24" fill="#d5dbe1" stroke="#ffffff" stroke-width="1"/><rect x="822" y="134" width="24" height="24" fill="#d5dbe1" stroke="#ffffff" stroke-width="1"/><rect x="846" y="134" width="24" height="24" fill="#d5dbe1" stroke="#ffffff" stroke-width="1"/><rect x="870" y="134" width="24" height="24" fill="#d5dbe1" stroke="#ffffff" stroke-width="1"/><rect x="150" y="158" width="24" height="24" fill="#d5dbe1" stroke="#ffffff" stroke-width="1"/><rect x="174" y="158" width="24" height="24" fill="#d5dbe1" stroke="#ffffff" stroke-width="1"/><rect x="198" y="158" width="24" height="24" fill="#d5dbe1" stroke="#ffffff" stroke-width="1"/><rect x="222" y="158" width="24" height="24" fill="#d5dbe1" stroke="#ffffff" stroke-width="1"/><rect x="246" y="158" width="24" height="24" fill="#d5dbe1" stroke="#ffffff" stroke-width="1"/><rect x="270" y="158" width="24" height="24" fill="#d5dbe1" stroke="#ffffff" stroke-width="1"/><rect x="294" y="158" width="24" height="24" fill="#d5dbe1" stroke="#ffffff" stroke-width="1"/><rect x="318" y="158" width="24" height="24" fill="#d5dbe1" stroke="#ffffff" stroke-width="1"/><rect x="342" y="158" width="24" height="24" fill="#d5dbe1" stroke="#ffffff" stroke-width="1"/><rect x="366" y="158" width="24" height="24" fill="#d5dbe1" stroke="#ffffff" stroke-width="1"/><rect x="390" y="158" width="24" height="24" fill="#d5dbe1" stroke="#ffffff" stroke-width="1"/><rect x="414" y="158" width="24" height="24" fill="#d5dbe1" stroke="#ffffff" stroke-width="1"/><rect x="438" y="158" width="24" height="24" fill="#d5dbe1" stroke="#ffffff" stroke-width="1"/><rect x="462" y="158" width="24" height="24" fill="#d5dbe1" stroke="#ffffff" stroke-width="1"/><rect x="486" y="158" width="24" height="24" fill="#d5dbe1" stroke="#ffffff" stroke-width="1"/><rect x="510" y="158" width="24" height="24" fill="#d5dbe1" stroke="#ffffff" stroke-width="1"/><rect x="534" y="158" width="24" height="24" fill="#d5dbe1" stroke="#ffffff" stroke-width="1"/><rect x="558" y="158" width="24" height="24" fill="#d5dbe1" stroke="#ffffff" stroke-width="1"/><rect x="582" y="158" width="24" height="24" fill="#d5dbe1" stroke="#ffffff" stroke-width="1"/><rect x="606" y="158" width="24" height="24" fill="#d5dbe1" stroke="#ffffff" stroke-width="1"/><rect x="630" y="158" width="24" height="24" fill="#d5dbe1" stroke="#ffffff" stroke-width="1"/><rect x="654" y="158" width="24" height="24" fill="#d5dbe1" stroke="#ffffff" stroke-width="1"/><rect x="678" y="158" width="24" height="24" fill="#d5dbe1" stroke="#ffffff" stroke-width="1"/><rect x="702" y="158" width="24" height="24" fill="#d5dbe1" stroke="#ffffff" stroke-width="1"/><rect x="726" y="158" width="24" height="24" fill="#d5dbe1" stroke="#ffffff" stroke-width="1"/><rect x="750" y="158" width="24" height="24" fill="#d5dbe1" stroke="#ffffff" stroke-width="1"/><rect x="774" y="158" width="24" height="24" fill="#d5dbe1" stroke="#ffffff" stroke-width="1"/><rect x="798" y="158" width="24" height="24" fill="#d5dbe1" stroke="#ffffff" stroke-width="1"/><rect x="822" y="158" width="24" height="24" fill="#d5dbe1" stroke="#ffffff" stroke-width="1"/><rect x="846" y="158" width="24" height="24" fill="#d5dbe1" stroke="#ffffff" stroke-width="1"/><rect x="870" y="158" width="24" height="24" fill="#d5dbe1" stroke="#ffffff" stroke-width="1"/><rect x="150" y="182" width="24" height="24" fill="#d5dbe1" stroke="#ffffff" stroke-width="1"/><rect x="174" y="182" width="24" height="24" fill="#d5dbe1" stroke="#ffffff" stroke-width="1"/><rect x="198" y="182" width="24" height="24" fill="#d5dbe1" stroke="#ffffff" stroke-width="1"/><rect x="222" y="182" width="24" height="24" fill="#d5dbe1" stroke="#ffffff" stroke-width="1"/><rect x="246" y="182" width="24" height="24" fill="#d5dbe1" stroke="#ffffff" stroke-width="1"/><rect x="270" y="182" width="24" height="24" fill="#d5dbe1" stroke="#ffffff" stroke-width="1"/><rect x="294" y="182" width="24" height="24" fill="#d5dbe1" stroke="#ffffff" stroke-width="1"/><rect x="318" y="182" width="24" height="24" fill="#d5dbe1" stroke="#ffffff" stroke-width="1"/><rect x="342" y="182" width="24" height="24" fill="#d5dbe1" stroke="#ffffff" stroke-width="1"/><rect x="366" y="182" width="24" height="24" fill="#d5dbe1" stroke="#ffffff" stroke-width="1"/><rect x="390" y="182" width="24" height="24" fill="#d5dbe1" stroke="#ffffff" stroke-width="1"/><rect x="414" y="182" width="24" height="24" fill="#d5dbe1" stroke="#ffffff" stroke-width="1"/><rect x="438" y="182" width="24" height="24" fill="#d5dbe1" stroke="#ffffff" stroke-width="1"/><rect x="462" y="182" width="24" height="24" fill="#d5dbe1" stroke="#ffffff" stroke-width="1"/><rect x="486" y="182" width="24" height="24" fill="#d5dbe1" stroke="#ffffff" stroke-width="1"/><rect x="510" y="182" width="24" height="24" fill="#d5dbe1" stroke="#ffffff" stroke-width="1"/><rect x="534" y="182" width="24" height="24" fill="#d5dbe1" stroke="#ffffff" stroke-width="1"/><rect x="558" y="182" width="24" height="24" fill="#d5dbe1" stroke="#ffffff" stroke-width="1"/><rect x="582" y="182" width="24" height="24" fill="#d5dbe1" stroke="#ffffff" stroke-width="1"/><rect x="606" y="182" width="24" height="24" fill="#d5dbe1" stroke="#ffffff" stroke-width="1"/><rect x="630" y="182" width="24" height="24" fill="#d5dbe1" stroke="#ffffff" stroke-width="1"/><rect x="654" y="182" width="24" height="24" fill="#d5dbe1" stroke="#ffffff" stroke-width="1"/><rect x="678" y="182" width="24" height="24" fill="#d5dbe1" stroke="#ffffff" stroke-width="1"/><rect x="702" y="182" width="24" height="24" fill="#d5dbe1" stroke="#ffffff" stroke-width="1"/><rect x="726" y="182" width="24" height="24" fill="#d5dbe1" stroke="#ffffff" stroke-width="1"/><rect x="750" y="182" width="24" height="24" fill="#d5dbe1" stroke="#ffffff" stroke-width="1"/><rect x="774" y="182" width="24" height="24" fill="#d5dbe1" stroke="#ffffff" stroke-width="1"/><rect x="798" y="182" width="24" height="24" fill="#d5dbe1" stroke="#ffffff" stroke-width="1"/><rect x="822" y="182" width="24" height="24" fill="#d5dbe1" stroke="#ffffff" stroke-width="1"/><rect x="846" y="182" width="24" height="24" fill="#d5dbe1" stroke="#ffffff" stroke-width="1"/><rect x="870" y="182" width="24" height="24" fill="#d5dbe1" stroke="#ffffff" stroke-width="1"/><rect x="150" y="206" width="24" height="24" fill="#d5dbe1" stroke="#ffffff" stroke-width="1"/><rect x="174" y="206" width="24" height="24" fill="#d5dbe1" stroke="#ffffff" stroke-width="1"/><rect x="198" y="206" width="24" height="24" fill="#d5dbe1" stroke="#ffffff" stroke-width="1"/><rect x="222" y="206" width="24" height="24" fill="#d5dbe1" stroke="#ffffff" stroke-width="1"/><rect x="246" y="206" width="24" height="24" fill="#d5dbe1" stroke="#ffffff" stroke-width="1"/><rect x="270" y="206" width="24" height="24" fill="#d5dbe1" stroke="#ffffff" stroke-width="1"/><rect x="294" y="206" width="24" height="24" fill="#d5dbe1" stroke="#ffffff" stroke-width="1"/><rect x="318" y="206" width="24" height="24" fill="#d5dbe1" stroke="#ffffff" stroke-width="1"/><rect x="342" y="206" width="24" height="24" fill="#d5dbe1" stroke="#ffffff" stroke-width="1"/><rect x="366" y="206" width="24" height="24" fill="#d5dbe1" stroke="#ffffff" stroke-width="1"/><rect x="390" y="206" width="24" height="24" fill="#d5dbe1" stroke="#ffffff" stroke-width="1"/><rect x="414" y="206" width="24" height="24" fill="#d5dbe1" stroke="#ffffff" stroke-width="1"/><rect x="438" y="206" width="24" height="24" fill="#d5dbe1" stroke="#ffffff" stroke-width="1"/><rect x="462" y="206" width="24" height="24" fill="#d5dbe1" stroke="#ffffff" stroke-width="1"/><rect x="486" y="206" width="24" height="24" fill="#d5dbe1" stroke="#ffffff" stroke-width="1"/><rect x="510" y="206" width="24" height="24" fill="#d5dbe1" stroke="#ffffff" stroke-width="1"/><rect x="534" y="206" width="24" height="24" fill="#d5dbe1" stroke="#ffffff" stroke-width="1"/><rect x="558" y="206" width="24" height="24" fill="#d5dbe1" stroke="#ffffff" stroke-width="1"/><rect x="582" y="206" width="24" height="24" fill="#d5dbe1" stroke="#ffffff" stroke-width="1"/><rect x="606" y="206" width="24" height="24" fill="#d5dbe1" stroke="#ffffff" stroke-width="1"/><rect x="630" y="206" width="24" height="24" fill="#d5dbe1" stroke="#ffffff" stroke-width="1"/><rect x="654" y="206" width="24" height="24" fill="#d5dbe1" stroke="#ffffff" stroke-width="1"/><rect x="678" y="206" width="24" height="24" fill="#d5dbe1" stroke="#ffffff" stroke-width="1"/><rect x="702" y="206" width="24" height="24" fill="#d5dbe1" stroke="#ffffff" stroke-width="1"/><rect x="726" y="206" width="24" height="24" fill="#d5dbe1" stroke="#ffffff" stroke-width="1"/><rect x="750" y="206" width="24" height="24" fill="#d5dbe1" stroke="#ffffff" stroke-width="1"/><rect x="774" y="206" width="24" height="24" fill="#d5dbe1" stroke="#ffffff" stroke-width="1"/><rect x="798" y="206" width="24" height="24" fill="#d5dbe1" stroke="#ffffff" stroke-width="1"/><rect x="822" y="206" width="24" height="24" fill="#d5dbe1" stroke="#ffffff" stroke-width="1"/><rect x="846" y="206" width="24" height="24" fill="#d5dbe1" stroke="#ffffff" stroke-width="1"/><rect x="870" y="206" width="24" height="24" fill="#d5dbe1" stroke="#ffffff" stroke-width="1"/><rect x="150" y="230" width="24" height="24" fill="#d5dbe1" stroke="#ffffff" stroke-width="1"/><rect x="174" y="230" width="24" height="24" fill="#d5dbe1" stroke="#ffffff" stroke-width="1"/><rect x="198" y="230" width="24" height="24" fill="#d5dbe1" stroke="#ffffff" stroke-width="1"/><rect x="222" y="230" width="24" height="24" fill="#d5dbe1" stroke="#ffffff" stroke-width="1"/><rect x="246" y="230" width="24" height="24" fill="#d5dbe1" stroke="#ffffff" stroke-width="1"/><rect x="270" y="230" width="24" height="24" fill="#d5dbe1" stroke="#ffffff" stroke-width="1"/><rect x="294" y="230" width="24" height="24" fill="#d5dbe1" stroke="#ffffff" stroke-width="1"/><rect x="318" y="230" width="24" height="24" fill="#d5dbe1" stroke="#ffffff" stroke-width="1"/><rect x="342" y="230" width="24" height="24" fill="#d5dbe1" stroke="#ffffff" stroke-width="1"/><rect x="366" y="230" width="24" height="24" fill="#d5dbe1" stroke="#ffffff" stroke-width="1"/><rect x="390" y="230" width="24" height="24" fill="#d5dbe1" stroke="#ffffff" stroke-width="1"/><rect x="414" y="230" width="24" height="24" fill="#d5dbe1" stroke="#ffffff" stroke-width="1"/><rect x="438" y="230" width="24" height="24" fill="#d5dbe1" stroke="#ffffff" stroke-width="1"/><rect x="462" y="230" width="24" height="24" fill="#d5dbe1" stroke="#ffffff" stroke-width="1"/><rect x="486" y="230" width="24" height="24" fill="#d5dbe1" stroke="#ffffff" stroke-width="1"/><rect x="510" y="230" width="24" height="24" fill="#d5dbe1" stroke="#ffffff" stroke-width="1"/><rect x="534" y="230" width="24" height="24" fill="#d5dbe1" stroke="#ffffff" stroke-width="1"/><rect x="558" y="230" width="24" height="24" fill="#d5dbe1" stroke="#ffffff" stroke-width="1"/><rect x="582" y="230" width="24" height="24" fill="#d5dbe1" stroke="#ffffff" stroke-width="1"/><rect x="606" y="230" width="24" height="24" fill="#d5dbe1" stroke="#ffffff" stroke-width="1"/><rect x="630" y="230" width="24" height="24" fill="#d5dbe1" stroke="#ffffff" stroke-width="1"/><rect x="654" y="230" width="24" height="24" fill="#d5dbe1" stroke="#ffffff" stroke-width="1"/><rect x="678" y="230" width="24" height="24" fill="#d5dbe1" stroke="#ffffff" stroke-width="1"/><rect x="702" y="230" width="24" height="24" fill="#d5dbe1" stroke="#ffffff" stroke-width="1"/><rect x="726" y="230" width="24" height="24" fill="#d5dbe1" stroke="#ffffff" stroke-width="1"/><rect x="750" y="230" width="24" height="24" fill="#d5dbe1" stroke="#ffffff" stroke-width="1"/><rect x="774" y="230" width="24" height="24" fill="#d5dbe1" stroke="#ffffff" stroke-width="1"/><rect x="798" y="230" width="24" height="24" fill="#d5dbe1" stroke="#ffffff" stroke-width="1"/><rect x="822" y="230" width="24" height="24" fill="#d5dbe1" stroke="#ffffff" stroke-width="1"/><rect x="846" y="230" width="24" height="24" fill="#d5dbe1" stroke="#ffffff" stroke-width="1"/><rect x="870" y="230" width="24" height="24" fill="#d5dbe1" stroke="#ffffff" stroke-width="1"/><rect x="150" y="254" width="24" height="24" fill="#d5dbe1" stroke="#ffffff" stroke-width="1"/><rect x="174" y="254" width="24" height="24" fill="#d5dbe1" stroke="#ffffff" stroke-width="1"/><rect x="198" y="254" width="24" height="24" fill="#d5dbe1" stroke="#ffffff" stroke-width="1"/><rect x="222" y="254" width="24" height="24" fill="#d5dbe1" stroke="#ffffff" stroke-width="1"/><rect x="246" y="254" width="24" height="24" fill="#d5dbe1" stroke="#ffffff" stroke-width="1"/><rect x="270" y="254" width="24" height="24" fill="#d5dbe1" stroke="#ffffff" stroke-width="1"/><rect x="294" y="254" width="24" height="24" fill="#d5dbe1" stroke="#ffffff" stroke-width="1"/><rect x="318" y="254" width="24" height="24" fill="#d5dbe1" stroke="#ffffff" stroke-width="1"/><rect x="342" y="254" width="24" height="24" fill="#d5dbe1" stroke="#ffffff" stroke-width="1"/><rect x="366" y="254" width="24" height="24" fill="#d5dbe1" stroke="#ffffff" stroke-width="1"/><rect x="390" y="254" width="24" height="24" fill="#d5dbe1" stroke="#ffffff" stroke-width="1"/><rect x="414" y="254" width="24" height="24" fill="#d5dbe1" stroke="#ffffff" stroke-width="1"/><rect x="438" y="254" width="24" height="24" fill="#d5dbe1" stroke="#ffffff" stroke-width="1"/><rect x="462" y="254" width="24" height="24" fill="#d5dbe1" stroke="#ffffff" stroke-width="1"/><rect x="486" y="254" width="24" height="24" fill="#d5dbe1" stroke="#ffffff" stroke-width="1"/><rect x="510" y="254" width="24" height="24" fill="#d5dbe1" stroke="#ffffff" stroke-width="1"/><rect x="534" y="254" width="24" height="24" fill="#d5dbe1" stroke="#ffffff" stroke-width="1"/><rect x="558" y="254" width="24" height="24" fill="#d5dbe1" stroke="#ffffff" stroke-width="1"/><rect x="582" y="254" width="24" height="24" fill="#d5dbe1" stroke="#ffffff" stroke-width="1"/><rect x="606" y="254" width="24" height="24" fill="#d5dbe1" stroke="#ffffff" stroke-width="1"/><rect x="630" y="254" width="24" height="24" fill="#d5dbe1" stroke="#ffffff" stroke-width="1"/><rect x="654" y="254" width="24" height="24" fill="#d5dbe1" stroke="#ffffff" stroke-width="1"/><rect x="678" y="254" width="24" height="24" fill="#d5dbe1" stroke="#ffffff" stroke-width="1"/><rect x="702" y="254" width="24" height="24" fill="#d5dbe1" stroke="#ffffff" stroke-width="1"/><rect x="726" y="254" width="24" height="24" fill="#d5dbe1" stroke="#ffffff" stroke-width="1"/><rect x="750" y="254" width="24" height="24" fill="#d5dbe1" stroke="#ffffff" stroke-width="1"/><rect x="774" y="254" width="24" height="24" fill="#d5dbe1" stroke="#ffffff" stroke-width="1"/><rect x="798" y="254" width="24" height="24" fill="#d5dbe1" stroke="#ffffff" stroke-width="1"/><rect x="822" y="254" width="24" height="24" fill="#d5dbe1" stroke="#ffffff" stroke-width="1"/><rect x="846" y="254" width="24" height="24" fill="#d5dbe1" stroke="#ffffff" stroke-width="1"/><rect x="870" y="254" width="24" height="24" fill="#d5dbe1" stroke="#ffffff" stroke-width="1"/><rect x="150" y="278" width="24" height="24" fill="#d5dbe1" stroke="#ffffff" stroke-width="1"/><rect x="174" y="278" width="24" height="24" fill="#d5dbe1" stroke="#ffffff" stroke-width="1"/><rect x="198" y="278" width="24" height="24" fill="#d5dbe1" stroke="#ffffff" stroke-width="1"/><rect x="222" y="278" width="24" height="24" fill="#d5dbe1" stroke="#ffffff" stroke-width="1"/><rect x="246" y="278" width="24" height="24" fill="#d5dbe1" stroke="#ffffff" stroke-width="1"/><rect x="270" y="278" width="24" height="24" fill="#d5dbe1" stroke="#ffffff" stroke-width="1"/><rect x="294" y="278" width="24" height="24" fill="#d5dbe1" stroke="#ffffff" stroke-width="1"/><rect x="318" y="278" width="24" height="24" fill="#d5dbe1" stroke="#ffffff" stroke-width="1"/><rect x="342" y="278" width="24" height="24" fill="#d5dbe1" stroke="#ffffff" stroke-width="1"/><rect x="366" y="278" width="24" height="24" fill="#d5dbe1" stroke="#ffffff" stroke-width="1"/><rect x="390" y="278" width="24" height="24" fill="#d5dbe1" stroke="#ffffff" stroke-width="1"/><rect x="414" y="278" width="24" height="24" fill="#d5dbe1" stroke="#ffffff" stroke-width="1"/><rect x="438" y="278" width="24" height="24" fill="#d5dbe1" stroke="#ffffff" stroke-width="1"/><rect x="462" y="278" width="24" height="24" fill="#d5dbe1" stroke="#ffffff" stroke-width="1"/><rect x="486" y="278" width="24" height="24" fill="#d5dbe1" stroke="#ffffff" stroke-width="1"/><rect x="510" y="278" width="24" height="24" fill="#d5dbe1" stroke="#ffffff" stroke-width="1"/><rect x="534" y="278" width="24" height="24" fill="#d5dbe1" stroke="#ffffff" stroke-width="1"/><rect x="558" y="278" width="24" height="24" fill="#d5dbe1" stroke="#ffffff" stroke-width="1"/><rect x="582" y="278" width="24" height="24" fill="#d5dbe1" stroke="#ffffff" stroke-width="1"/><rect x="606" y="278" width="24" height="24" fill="#d5dbe1" stroke="#ffffff" stroke-width="1"/><rect x="630" y="278" width="24" height="24" fill="#d5dbe1" stroke="#ffffff" stroke-width="1"/><rect x="654" y="278" width="24" height="24" fill="#d5dbe1" stroke="#ffffff" stroke-width="1"/><rect x="678" y="278" width="24" height="24" fill="#d5dbe1" stroke="#ffffff" stroke-width="1"/><rect x="702" y="278" width="24" height="24" fill="#d5dbe1" stroke="#ffffff" stroke-width="1"/><rect x="726" y="278" width="24" height="24" fill="#d5dbe1" stroke="#ffffff" stroke-width="1"/><rect x="750" y="278" width="24" height="24" fill="#d5dbe1" stroke="#ffffff" stroke-width="1"/><rect x="774" y="278" width="24" height="24" fill="#d5dbe1" stroke="#ffffff" stroke-width="1"/><rect x="798" y="278" width="24" height="24" fill="#d5dbe1" stroke="#ffffff" stroke-width="1"/><rect x="822" y="278" width="24" height="24" fill="#d5dbe1" stroke="#ffffff" stroke-width="1"/><rect x="846" y="278" width="24" height="24" fill="#d5dbe1" stroke="#ffffff" stroke-width="1"/><rect x="870" y="278" width="24" height="24" fill="#d5dbe1" stroke="#ffffff" stroke-width="1"/><rect x="150" y="302" width="24" height="24" fill="#d5dbe1" stroke="#ffffff" stroke-width="1"/><rect x="174" y="302" width="24" height="24" fill="#d5dbe1" stroke="#ffffff" stroke-width="1"/><rect x="198" y="302" width="24" height="24" fill="#d5dbe1" stroke="#ffffff" stroke-width="1"/><rect x="222" y="302" width="24" height="24" fill="#d5dbe1" stroke="#ffffff" stroke-width="1"/><rect x="246" y="302" width="24" height="24" fill="#d5dbe1" stroke="#ffffff" stroke-width="1"/><rect x="270" y="302" width="24" height="24" fill="#d5dbe1" stroke="#ffffff" stroke-width="1"/><rect x="294" y="302" width="24" height="24" fill="#d5dbe1" stroke="#ffffff" stroke-width="1"/><rect x="318" y="302" width="24" height="24" fill="#d5dbe1" stroke="#ffffff" stroke-width="1"/><rect x="342" y="302" width="24" height="24" fill="#d5dbe1" stroke="#ffffff" stroke-width="1"/><rect x="366" y="302" width="24" height="24" fill="#d5dbe1" stroke="#ffffff" stroke-width="1"/><rect x="390" y="302" width="24" height="24" fill="#d5dbe1" stroke="#ffffff" stroke-width="1"/><rect x="414" y="302" width="24" height="24" fill="#d5dbe1" stroke="#ffffff" stroke-width="1"/><rect x="438" y="302" width="24" height="24" fill="#d5dbe1" stroke="#ffffff" stroke-width="1"/><rect x="462" y="302" width="24" height="24" fill="#d5dbe1" stroke="#ffffff" stroke-width="1"/><rect x="486" y="302" width="24" height="24" fill="#d5dbe1" stroke="#ffffff" stroke-width="1"/><rect x="510" y="302" width="24" height="24" fill="#d5dbe1" stroke="#ffffff" stroke-width="1"/><rect x="534" y="302" width="24" height="24" fill="#d5dbe1" stroke="#ffffff" stroke-width="1"/><rect x="558" y="302" width="24" height="24" fill="#d5dbe1" stroke="#ffffff" stroke-width="1"/><rect x="582" y="302" width="24" height="24" fill="#d5dbe1" stroke="#ffffff" stroke-width="1"/><rect x="606" y="302" width="24" height="24" fill="#d5dbe1" stroke="#ffffff" stroke-width="1"/><rect x="630" y="302" width="24" height="24" fill="#d5dbe1" stroke="#ffffff" stroke-width="1"/><rect x="654" y="302" width="24" height="24" fill="#d5dbe1" stroke="#ffffff" stroke-width="1"/><rect x="678" y="302" width="24" height="24" fill="#d5dbe1" stroke="#ffffff" stroke-width="1"/><rect x="702" y="302" width="24" height="24" fill="#d5dbe1" stroke="#ffffff" stroke-width="1"/><rect x="726" y="302" width="24" height="24" fill="#d5dbe1" stroke="#ffffff" stroke-width="1"/><rect x="750" y="302" width="24" height="24" fill="#d5dbe1" stroke="#ffffff" stroke-width="1"/><rect x="774" y="302" width="24" height="24" fill="#ffffff" stroke="#ffffff" stroke-width="1"/><text x="786.0" y="318" text-anchor="middle" class="small">?</text><rect x="798" y="302" width="24" height="24" fill="#f6d7a7" stroke="#ffffff" stroke-width="1"/><rect x="822" y="302" width="24" height="24" fill="#f6d7a7" stroke="#ffffff" stroke-width="1"/><rect x="846" y="302" width="24" height="24" fill="#f6d7a7" stroke="#ffffff" stroke-width="1"/><rect x="870" y="302" width="24" height="24" fill="#f6d7a7" stroke="#ffffff" stroke-width="1"/><rect x="150" y="326" width="24" height="24" fill="#f6d7a7" stroke="#ffffff" stroke-width="1"/><rect x="174" y="326" width="24" height="24" fill="#f6d7a7" stroke="#ffffff" stroke-width="1"/><rect x="198" y="326" width="24" height="24" fill="#f6d7a7" stroke="#ffffff" stroke-width="1"/><rect x="222" y="326" width="24" height="24" fill="#f6d7a7" stroke="#ffffff" stroke-width="1"/><rect x="246" y="326" width="24" height="24" fill="#f6d7a7" stroke="#ffffff" stroke-width="1"/><rect x="270" y="326" width="24" height="24" fill="#f6d7a7" stroke="#ffffff" stroke-width="1"/><rect x="272" y="328" width="20" height="20" fill="none" stroke="#b03a2e" stroke-width="2.5"/><text x="298" y="342" class="tiny" fill="#b03a2e">9</text><rect x="294" y="326" width="24" height="24" fill="#f6d7a7" stroke="#ffffff" stroke-width="1"/><rect x="318" y="326" width="24" height="24" fill="#f6d7a7" stroke="#ffffff" stroke-width="1"/><rect x="342" y="326" width="24" height="24" fill="#f6d7a7" stroke="#ffffff" stroke-width="1"/><rect x="366" y="326" width="24" height="24" fill="#f6d7a7" stroke="#ffffff" stroke-width="1"/><rect x="390" y="326" width="24" height="24" fill="#f6d7a7" stroke="#ffffff" stroke-width="1"/><rect x="414" y="326" width="24" height="24" fill="#f6d7a7" stroke="#ffffff" stroke-width="1"/><rect x="438" y="326" width="24" height="24" fill="#f6d7a7" stroke="#ffffff" stroke-width="1"/><rect x="462" y="326" width="24" height="24" fill="#f6d7a7" stroke="#ffffff" stroke-width="1"/><rect x="486" y="326" width="24" height="24" fill="#f6d7a7" stroke="#ffffff" stroke-width="1"/><rect x="510" y="326" width="24" height="24" fill="#f6d7a7" stroke="#ffffff" stroke-width="1"/><rect x="534" y="326" width="24" height="24" fill="#f6d7a7" stroke="#ffffff" stroke-width="1"/><rect x="558" y="326" width="24" height="24" fill="#f6d7a7" stroke="#ffffff" stroke-width="1"/><rect x="582" y="326" width="24" height="24" fill="#f6d7a7" stroke="#ffffff" stroke-width="1"/><rect x="606" y="326" width="24" height="24" fill="#f6d7a7" stroke="#ffffff" stroke-width="1"/><rect x="630" y="326" width="24" height="24" fill="#f6d7a7" stroke="#ffffff" stroke-width="1"/><rect x="654" y="326" width="24" height="24" fill="#f6d7a7" stroke="#ffffff" stroke-width="1"/><rect x="678" y="326" width="24" height="24" fill="#f6d7a7" stroke="#ffffff" stroke-width="1"/><rect x="702" y="326" width="24" height="24" fill="#f6d7a7" stroke="#ffffff" stroke-width="1"/><rect x="726" y="326" width="24" height="24" fill="#f6d7a7" stroke="#ffffff" stroke-width="1"/><rect x="728" y="328" width="20" height="20" fill="none" stroke="#b03a2e" stroke-width="2.5"/><text x="754" y="342" class="tiny" fill="#b03a2e">28</text><rect x="750" y="326" width="24" height="24" fill="#f6d7a7" stroke="#ffffff" stroke-width="1"/><rect x="774" y="326" width="24" height="24" fill="#f6d7a7" stroke="#ffffff" stroke-width="1"/><rect x="798" y="326" width="24" height="24" fill="#f6d7a7" stroke="#ffffff" stroke-width="1"/><rect x="822" y="326" width="24" height="24" fill="#f6d7a7" stroke="#ffffff" stroke-width="1"/><rect x="846" y="326" width="24" height="24" fill="#f6d7a7" stroke="#ffffff" stroke-width="1"/><rect x="870" y="326" width="24" height="24" fill="#f6d7a7" stroke="#ffffff" stroke-width="1"/><rect x="150" y="350" width="24" height="24" fill="#f6d7a7" stroke="#ffffff" stroke-width="1"/><rect x="174" y="350" width="24" height="24" fill="#f6d7a7" stroke="#ffffff" stroke-width="1"/><rect x="198" y="350" width="24" height="24" fill="#f6d7a7" stroke="#ffffff" stroke-width="1"/><rect x="222" y="350" width="24" height="24" fill="#f6d7a7" stroke="#ffffff" stroke-width="1"/><rect x="246" y="350" width="24" height="24" fill="#f6d7a7" stroke="#ffffff" stroke-width="1"/><rect x="270" y="350" width="24" height="24" fill="#f6d7a7" stroke="#ffffff" stroke-width="1"/><rect x="272" y="352" width="20" height="20" fill="none" stroke="#b03a2e" stroke-width="2.5"/><text x="298" y="366" class="tiny" fill="#b03a2e">40</text><rect x="294" y="350" width="24" height="24" fill="#f6d7a7" stroke="#ffffff" stroke-width="1"/><rect x="318" y="350" width="24" height="24" fill="#f6d7a7" stroke="#ffffff" stroke-width="1"/><rect x="342" y="350" width="24" height="24" fill="#f6d7a7" stroke="#ffffff" stroke-width="1"/><rect x="366" y="350" width="24" height="24" fill="#f6d7a7" stroke="#ffffff" stroke-width="1"/><rect x="390" y="350" width="24" height="24" fill="#f6d7a7" stroke="#ffffff" stroke-width="1"/><rect x="414" y="350" width="24" height="24" fill="#f6d7a7" stroke="#ffffff" stroke-width="1"/><rect x="438" y="350" width="24" height="24" fill="#f6d7a7" stroke="#ffffff" stroke-width="1"/><rect x="462" y="350" width="24" height="24" fill="#f6d7a7" stroke="#ffffff" stroke-width="1"/><rect x="486" y="350" width="24" height="24" fill="#f6d7a7" stroke="#ffffff" stroke-width="1"/><rect x="510" y="350" width="24" height="24" fill="#f6d7a7" stroke="#ffffff" stroke-width="1"/><rect x="534" y="350" width="24" height="24" fill="#f6d7a7" stroke="#ffffff" stroke-width="1"/><rect x="558" y="350" width="24" height="24" fill="#f6d7a7" stroke="#ffffff" stroke-width="1"/><rect x="582" y="350" width="24" height="24" fill="#f6d7a7" stroke="#ffffff" stroke-width="1"/><rect x="606" y="350" width="24" height="24" fill="#f6d7a7" stroke="#ffffff" stroke-width="1"/><rect x="630" y="350" width="24" height="24" fill="#f6d7a7" stroke="#ffffff" stroke-width="1"/><rect x="654" y="350" width="24" height="24" fill="#f6d7a7" stroke="#ffffff" stroke-width="1"/><rect x="678" y="350" width="24" height="24" fill="#f6d7a7" stroke="#ffffff" stroke-width="1"/><rect x="702" y="350" width="24" height="24" fill="#f6d7a7" stroke="#ffffff" stroke-width="1"/><rect x="726" y="350" width="24" height="24" fill="#f6d7a7" stroke="#ffffff" stroke-width="1"/><rect x="728" y="352" width="20" height="20" fill="none" stroke="#b03a2e" stroke-width="2.5"/><text x="754" y="366" class="tiny" fill="#b03a2e">59</text><rect x="750" y="350" width="24" height="24" fill="#f6d7a7" stroke="#ffffff" stroke-width="1"/><rect x="774" y="350" width="24" height="24" fill="#f6d7a7" stroke="#ffffff" stroke-width="1"/><rect x="798" y="350" width="24" height="24" fill="#f6d7a7" stroke="#ffffff" stroke-width="1"/><rect x="822" y="350" width="24" height="24" fill="#f6d7a7" stroke="#ffffff" stroke-width="1"/><rect x="846" y="350" width="24" height="24" fill="#f6d7a7" stroke="#ffffff" stroke-width="1"/><rect x="870" y="350" width="24" height="24" fill="#f6d7a7" stroke="#ffffff" stroke-width="1"/><rect x="150" y="374" width="24" height="24" fill="#f6d7a7" stroke="#ffffff" stroke-width="1"/><rect x="174" y="374" width="24" height="24" fill="#f6d7a7" stroke="#ffffff" stroke-width="1"/><rect x="198" y="374" width="24" height="24" fill="#f6d7a7" stroke="#ffffff" stroke-width="1"/><rect x="222" y="374" width="24" height="24" fill="#f6d7a7" stroke="#ffffff" stroke-width="1"/><rect x="246" y="374" width="24" height="24" fill="#f6d7a7" stroke="#ffffff" stroke-width="1"/><rect x="270" y="374" width="24" height="24" fill="#f6d7a7" stroke="#ffffff" stroke-width="1"/><rect x="272" y="376" width="20" height="20" fill="none" stroke="#b03a2e" stroke-width="2.5"/><text x="298" y="390" class="tiny" fill="#b03a2e">71</text><rect x="294" y="374" width="24" height="24" fill="#f6d7a7" stroke="#ffffff" stroke-width="1"/><rect x="318" y="374" width="24" height="24" fill="#f6d7a7" stroke="#ffffff" stroke-width="1"/><rect x="342" y="374" width="24" height="24" fill="#f6d7a7" stroke="#ffffff" stroke-width="1"/><rect x="366" y="374" width="24" height="24" fill="#f6d7a7" stroke="#ffffff" stroke-width="1"/><rect x="390" y="374" width="24" height="24" fill="#f6d7a7" stroke="#ffffff" stroke-width="1"/><rect x="414" y="374" width="24" height="24" fill="#f6d7a7" stroke="#ffffff" stroke-width="1"/><rect x="438" y="374" width="24" height="24" fill="#f6d7a7" stroke="#ffffff" stroke-width="1"/><rect x="462" y="374" width="24" height="24" fill="#f6d7a7" stroke="#ffffff" stroke-width="1"/><rect x="486" y="374" width="24" height="24" fill="#f6d7a7" stroke="#ffffff" stroke-width="1"/><rect x="510" y="374" width="24" height="24" fill="#f6d7a7" stroke="#ffffff" stroke-width="1"/><rect x="534" y="374" width="24" height="24" fill="#f6d7a7" stroke="#ffffff" stroke-width="1"/><rect x="558" y="374" width="24" height="24" fill="#f6d7a7" stroke="#ffffff" stroke-width="1"/><rect x="582" y="374" width="24" height="24" fill="#f6d7a7" stroke="#ffffff" stroke-width="1"/><rect x="606" y="374" width="24" height="24" fill="#f6d7a7" stroke="#ffffff" stroke-width="1"/><rect x="630" y="374" width="24" height="24" fill="#f6d7a7" stroke="#ffffff" stroke-width="1"/><rect x="654" y="374" width="24" height="24" fill="#f6d7a7" stroke="#ffffff" stroke-width="1"/><rect x="678" y="374" width="24" height="24" fill="#f6d7a7" stroke="#ffffff" stroke-width="1"/><rect x="702" y="374" width="24" height="24" fill="#f6d7a7" stroke="#ffffff" stroke-width="1"/><rect x="726" y="374" width="24" height="24" fill="#f6d7a7" stroke="#ffffff" stroke-width="1"/><rect x="728" y="376" width="20" height="20" fill="none" stroke="#b03a2e" stroke-width="2.5"/><text x="754" y="390" class="tiny" fill="#b03a2e">90</text><rect x="750" y="374" width="24" height="24" fill="#f6d7a7" stroke="#ffffff" stroke-width="1"/><rect x="774" y="374" width="24" height="24" fill="#f6d7a7" stroke="#ffffff" stroke-width="1"/><rect x="798" y="374" width="24" height="24" fill="#f6d7a7" stroke="#ffffff" stroke-width="1"/><rect x="822" y="374" width="24" height="24" fill="#f6d7a7" stroke="#ffffff" stroke-width="1"/><rect x="846" y="374" width="24" height="24" fill="#f6d7a7" stroke="#ffffff" stroke-width="1"/><rect x="870" y="374" width="24" height="24" fill="#f6d7a7" stroke="#ffffff" stroke-width="1"/><text x="142" y="78" text-anchor="end" class="tiny">1</text><text x="142" y="102" text-anchor="end" class="tiny">2</text><text x="142" y="126" text-anchor="end" class="tiny">3</text><text x="142" y="150" text-anchor="end" class="tiny">4</text><text x="142" y="174" text-anchor="end" class="tiny">5</text><text x="142" y="198" text-anchor="end" class="tiny">6</text><text x="142" y="222" text-anchor="end" class="tiny">7</text><text x="142" y="246" text-anchor="end" class="tiny">8</text><text x="142" y="270" text-anchor="end" class="tiny">9</text><text x="142" y="294" text-anchor="end" class="tiny">10</text><text x="142" y="318" text-anchor="end" class="tiny">11</text><text x="142" y="342" text-anchor="end" class="tiny">12</text><text x="142" y="366" text-anchor="end" class="tiny">13</text><text x="142" y="390" text-anchor="end" class="tiny">14</text><line x1="282.0" y1="52" x2="282.0" y2="408" stroke="#b03a2e" stroke-width="2" stroke-dasharray="6,4"/><text x="282.0" y="424" text-anchor="middle" class="small" fill="#b03a2e">fold, column 6</text><line x1="738.0" y1="52" x2="738.0" y2="408" stroke="#b03a2e" stroke-width="2" stroke-dasharray="6,4"/><text x="738.0" y="424" text-anchor="middle" class="small" fill="#b03a2e">fold, column 25</text><rect x="924" y="62" width="18" height="18" fill="#d5dbe1"/><text x="950" y="76" class="small">K3 (336 cells)</text><rect x="924" y="92" width="18" height="18" fill="#f6d7a7"/><text x="950" y="106" class="small">K4 (97 cells)</text><rect x="924" y="122" width="18" height="18" fill="none" stroke="#b03a2e" stroke-width="2.5"/><text x="950" y="136" class="small">K4 cell on a fold</text><text x="950" y="154" class="small">(0-based K4 position)</text><text x="60" y="460" class="small">Restarting one key at the six crossings puts five crib pairs at the same phase: 28/71, 29/72, 30/73, 32/63, 33/64.</text><text x="60" y="482" class="small">A shift table (6 conventions) needs equal keys in each pair: K4 disagrees in all 5 (closed, for any key generator).</text><text x="60" y="504" class="small">Arbitrary rows by phase: K4 has 0 conflicts, but so do 83% of 100,000 shuffled ciphertexts (undecidable).</text><text x="60" y="526" class="small">Cell layout only; the public image is a typeset reconstruction, and every other mark lies outside the grid.</text></svg>