<svg xmlns="http://www.w3.org/2000/svg" width="1080" height="470" viewBox="0 0 1080 470"><rect width="100%" height="100%" fill="#fffdf8"/><style>text{font-family:Arial,sans-serif;fill:#17202a}.small{font-size:13px}.tiny{font-size:11px}.title{font-size:17px;font-weight:600}</style><text x="540" y="30" text-anchor="middle" class="title">Any periodic key, periods 1-96: what the 24 crib letters decide (8 alphabet and form settings)</text><rect x="60" y="70" width="36" height="36" rx="4" fill="#b03a2e"/><text x="78.0" y="93" text-anchor="middle" class="tiny" fill="#fffdf8">1</text><rect x="100" y="70" width="36" height="36" rx="4" fill="#b03a2e"/><text x="118.0" y="93" text-anchor="middle" class="tiny" fill="#fffdf8">2</text><rect x="140" y="70" width="36" height="36" rx="4" fill="#b03a2e"/><text x="158.0" y="93" text-anchor="middle" class="tiny" fill="#fffdf8">3</text><rect x="180" y="70" width="36" height="36" rx="4" fill="#b03a2e"/><text x="198.0" y="93" text-anchor="middle" class="tiny" fill="#fffdf8">4</text><rect x="220" y="70" width="36" height="36" rx="4" fill="#b03a2e"/><text x="238.0" y="93" text-anchor="middle" class="tiny" fill="#fffdf8">5</text><rect x="260" y="70" width="36" height="36" rx="4" fill="#b03a2e"/><text x="278.0" y="93" text-anchor="middle" class="tiny" fill="#fffdf8">6</text><rect x="300" y="70" width="36" height="36" rx="4" fill="#b03a2e"/><text x="318.0" y="93" text-anchor="middle" class="tiny" fill="#fffdf8">7</text><rect x="340" y="70" width="36" height="36" rx="4" fill="#b03a2e"/><text x="358.0" y="93" text-anchor="middle" class="tiny" fill="#fffdf8">8</text><rect x="380" y="70" width="36" height="36" rx="4" fill="#b03a2e"/><text x="398.0" y="93" text-anchor="middle" class="tiny" fill="#fffdf8">9</text><rect x="420" y="70" width="36" height="36" rx="4" fill="#b03a2e"/><text x="438.0" y="93" text-anchor="middle" class="tiny" fill="#fffdf8">10</text><rect x="460" y="70" width="36" height="36" rx="4" fill="#b03a2e"/><text x="478.0" y="93" text-anchor="middle" class="tiny" fill="#fffdf8">11</text><rect x="500" y="70" width="36" height="36" rx="4" fill="#b03a2e"/><text x="518.0" y="93" text-anchor="middle" class="tiny" fill="#fffdf8">12</text><rect x="540" y="70" width="36" height="36" rx="4" fill="#b03a2e"/><text x="558.0" y="93" text-anchor="middle" class="tiny" fill="#fffdf8">13</text><rect x="580" y="70" width="36" height="36" rx="4" fill="#b03a2e"/><text x="598.0" y="93" text-anchor="middle" class="tiny" fill="#fffdf8">14</text><rect x="620" y="70" width="36" height="36" rx="4" fill="#b03a2e"/><text x="638.0" y="93" text-anchor="middle" class="tiny" fill="#fffdf8">15</text><rect x="660" y="70" width="36" height="36" rx="4" fill="#b03a2e"/><text x="678.0" y="93" text-anchor="middle" class="tiny" fill="#fffdf8">16</text><rect x="700" y="70" width="36" height="36" rx="4" fill="#b03a2e"/><text x="718.0" y="93" text-anchor="middle" class="tiny" fill="#fffdf8">17</text><rect x="740" y="70" width="36" height="36" rx="4" fill="#b03a2e"/><text x="758.0" y="93" text-anchor="middle" class="tiny" fill="#fffdf8">18</text><rect x="780" y="70" width="36" height="36" rx="4" fill="#b03a2e"/><text x="798.0" y="93" text-anchor="middle" class="tiny" fill="#fffdf8">19</text><rect x="820" y="70" width="36" height="36" rx="4" fill="#b03a2e"/><text x="838.0" y="93" text-anchor="middle" class="tiny" fill="#fffdf8">20</text><rect x="860" y="70" width="36" height="36" rx="4" fill="#b03a2e"/><text x="878.0" y="93" text-anchor="middle" class="tiny" fill="#fffdf8">21</text><rect x="900" y="70" width="36" height="36" rx="4" fill="#b03a2e"/><text x="918.0" y="93" text-anchor="middle" class="tiny" fill="#fffdf8">22</text><rect x="940" y="70" width="36" height="36" rx="4" fill="#b03a2e"/><text x="958.0" y="93" text-anchor="middle" class="tiny" fill="#fffdf8">23</text><rect x="980" y="70" width="36" height="36" rx="4" fill="#b03a2e"/><text x="998.0" y="93" text-anchor="middle" class="tiny" fill="#fffdf8">24</text><rect x="60" y="116" width="36" height="36" rx="4" fill="#b03a2e"/><text x="78.0" y="139" text-anchor="middle" class="tiny" fill="#fffdf8">25</text><rect x="100" y="116" width="36" height="36" rx="4" fill="#b03a2e"/><text x="118.0" y="139" text-anchor="middle" class="tiny" fill="#fffdf8">26</text><rect x="140" y="116" width="36" height="36" rx="4" fill="#d9dde2"/><text x="158.0" y="139" text-anchor="middle" class="tiny" fill="#17202a">27</text><rect x="180" y="116" width="36" height="36" rx="4" fill="#d9dde2"/><text x="198.0" y="139" text-anchor="middle" class="tiny" fill="#17202a">28</text><rect x="220" y="116" width="36" height="36" rx="4" fill="#d9dde2"/><text x="238.0" y="139" text-anchor="middle" class="tiny" fill="#17202a">29</text><rect x="260" y="116" width="36" height="36" rx="4" fill="#b03a2e"/><text x="278.0" y="139" text-anchor="middle" class="tiny" fill="#fffdf8">30</text><rect x="300" y="116" width="36" height="36" rx="4" fill="#b03a2e"/><text x="318.0" y="139" text-anchor="middle" class="tiny" fill="#fffdf8">31</text><rect x="340" y="116" width="36" height="36" rx="4" fill="#b03a2e"/><text x="358.0" y="139" text-anchor="middle" class="tiny" fill="#fffdf8">32</text><rect x="380" y="116" width="36" height="36" rx="4" fill="#b03a2e"/><text x="398.0" y="139" text-anchor="middle" class="tiny" fill="#fffdf8">33</text><rect x="420" y="116" width="36" height="36" rx="4" fill="#b03a2e"/><text x="438.0" y="139" text-anchor="middle" class="tiny" fill="#fffdf8">34</text><rect x="460" y="116" width="36" height="36" rx="4" fill="#b03a2e"/><text x="478.0" y="139" text-anchor="middle" class="tiny" fill="#fffdf8">35</text><rect x="500" y="116" width="36" height="36" rx="4" fill="#b03a2e"/><text x="518.0" y="139" text-anchor="middle" class="tiny" fill="#fffdf8">36</text><rect x="540" y="116" width="36" height="36" rx="4" fill="#b03a2e"/><text x="558.0" y="139" text-anchor="middle" class="tiny" fill="#fffdf8">37</text><rect x="580" y="116" width="36" height="36" rx="4" fill="#b03a2e"/><text x="598.0" y="139" text-anchor="middle" class="tiny" fill="#fffdf8">38</text><rect x="620" y="116" width="36" height="36" rx="4" fill="#b03a2e"/><text x="638.0" y="139" text-anchor="middle" class="tiny" fill="#fffdf8">39</text><rect x="660" y="116" width="36" height="36" rx="4" fill="#b03a2e"/><text x="678.0" y="139" text-anchor="middle" class="tiny" fill="#fffdf8">40</text><rect x="700" y="116" width="36" height="36" rx="4" fill="#b03a2e"/><text x="718.0" y="139" text-anchor="middle" class="tiny" fill="#fffdf8">41</text><rect x="740" y="116" width="36" height="36" rx="4" fill="#b03a2e"/><text x="758.0" y="139" text-anchor="middle" class="tiny" fill="#fffdf8">42</text><rect x="780" y="116" width="36" height="36" rx="4" fill="#b03a2e"/><text x="798.0" y="139" text-anchor="middle" class="tiny" fill="#fffdf8">43</text><rect x="820" y="116" width="36" height="36" rx="4" fill="#b03a2e"/><text x="838.0" y="139" text-anchor="middle" class="tiny" fill="#fffdf8">44</text><rect x="860" y="116" width="36" height="36" rx="4" fill="#b03a2e"/><text x="878.0" y="139" text-anchor="middle" class="tiny" fill="#fffdf8">45</text><rect x="900" y="116" width="36" height="36" rx="4" fill="#b03a2e"/><text x="918.0" y="139" text-anchor="middle" class="tiny" fill="#fffdf8">46</text><rect x="940" y="116" width="36" height="36" rx="4" fill="#b03a2e"/><text x="958.0" y="139" text-anchor="middle" class="tiny" fill="#fffdf8">47</text><rect x="980" y="116" width="36" height="36" rx="4" fill="#b03a2e"/><text x="998.0" y="139" text-anchor="middle" class="tiny" fill="#fffdf8">48</text><rect x="60" y="162" width="36" height="36" rx="4" fill="#b03a2e"/><text x="78.0" y="185" text-anchor="middle" class="tiny" fill="#fffdf8">49</text><rect x="100" y="162" width="36" height="36" rx="4" fill="#b03a2e"/><text x="118.0" y="185" text-anchor="middle" class="tiny" fill="#fffdf8">50</text><rect x="140" y="162" width="36" height="36" rx="4" fill="#b03a2e"/><text x="158.0" y="185" text-anchor="middle" class="tiny" fill="#fffdf8">51</text><rect x="180" y="162" width="36" height="36" rx="4" fill="#b03a2e"/><text x="198.0" y="185" text-anchor="middle" class="tiny" fill="#fffdf8">52</text><rect x="220" y="162" width="36" height="36" rx="4" fill="#d9dde2"/><text x="238.0" y="185" text-anchor="middle" class="tiny" fill="#17202a">53</text><rect x="260" y="162" width="36" height="36" rx="4" fill="#d9dde2"/><text x="278.0" y="185" text-anchor="middle" class="tiny" fill="#17202a">54</text><rect x="300" y="162" width="36" height="36" rx="4" fill="#d9dde2"/><text x="318.0" y="185" text-anchor="middle" class="tiny" fill="#17202a">55</text><rect x="340" y="162" width="36" height="36" rx="4" fill="#d9dde2"/><text x="358.0" y="185" text-anchor="middle" class="tiny" fill="#17202a">56</text><rect x="380" y="162" width="36" height="36" rx="4" fill="#d9dde2"/><text x="398.0" y="185" text-anchor="middle" class="tiny" fill="#17202a">57</text><rect x="420" y="162" width="36" height="36" rx="4" fill="#d9dde2"/><text x="438.0" y="185" text-anchor="middle" class="tiny" fill="#17202a">58</text><rect x="460" y="162" width="36" height="36" rx="4" fill="#d9dde2"/><text x="478.0" y="185" text-anchor="middle" class="tiny" fill="#17202a">59</text><rect x="500" y="162" width="36" height="36" rx="4" fill="#d9dde2"/><text x="518.0" y="185" text-anchor="middle" class="tiny" fill="#17202a">60</text><rect x="540" y="162" width="36" height="36" rx="4" fill="#d9dde2"/><text x="558.0" y="185" text-anchor="middle" class="tiny" fill="#17202a">61</text><rect x="580" y="162" width="36" height="36" rx="4" fill="#d9dde2"/><text x="598.0" y="185" text-anchor="middle" class="tiny" fill="#17202a">62</text><rect x="620" y="162" width="36" height="36" rx="4" fill="#d9dde2"/><text x="638.0" y="185" text-anchor="middle" class="tiny" fill="#17202a">63</text><rect x="660" y="162" width="36" height="36" rx="4" fill="#d9dde2"/><text x="678.0" y="185" text-anchor="middle" class="tiny" fill="#17202a">64</text><rect x="700" y="162" width="36" height="36" rx="4" fill="#d9dde2"/><text x="718.0" y="185" text-anchor="middle" class="tiny" fill="#17202a">65</text><rect x="740" y="162" width="36" height="36" rx="4" fill="#d9dde2"/><text x="758.0" y="185" text-anchor="middle" class="tiny" fill="#17202a">66</text><rect x="780" y="162" width="36" height="36" rx="4" fill="#d9dde2"/><text x="798.0" y="185" text-anchor="middle" class="tiny" fill="#17202a">67</text><rect x="820" y="162" width="36" height="36" rx="4" fill="#d9dde2"/><text x="838.0" y="185" text-anchor="middle" class="tiny" fill="#17202a">68</text><rect x="860" y="162" width="36" height="36" rx="4" fill="#d9dde2"/><text x="878.0" y="185" text-anchor="middle" class="tiny" fill="#17202a">69</text><rect x="900" y="162" width="36" height="36" rx="4" fill="#d9dde2"/><text x="918.0" y="185" text-anchor="middle" class="tiny" fill="#17202a">70</text><rect x="940" y="162" width="36" height="36" rx="4" fill="#d9dde2"/><text x="958.0" y="185" text-anchor="middle" class="tiny" fill="#17202a">71</text><rect x="980" y="162" width="36" height="36" rx="4" fill="#d9dde2"/><text x="998.0" y="185" text-anchor="middle" class="tiny" fill="#17202a">72</text><rect x="60" y="208" width="36" height="36" rx="4" fill="#d9dde2"/><text x="78.0" y="231" text-anchor="middle" class="tiny" fill="#17202a">73</text><rect x="100" y="208" width="36" height="36" rx="4" fill="#d9dde2"/><text x="118.0" y="231" text-anchor="middle" class="tiny" fill="#17202a">74</text><rect x="140" y="208" width="36" height="36" rx="4" fill="#d9dde2"/><text x="158.0" y="231" text-anchor="middle" class="tiny" fill="#17202a">75</text><rect x="180" y="208" width="36" height="36" rx="4" fill="#d9dde2"/><text x="198.0" y="231" text-anchor="middle" class="tiny" fill="#17202a">76</text><rect x="220" y="208" width="36" height="36" rx="4" fill="#d9dde2"/><text x="238.0" y="231" text-anchor="middle" class="tiny" fill="#17202a">77</text><rect x="260" y="208" width="36" height="36" rx="4" fill="#d9dde2"/><text x="278.0" y="231" text-anchor="middle" class="tiny" fill="#17202a">78</text><rect x="300" y="208" width="36" height="36" rx="4" fill="#d9dde2"/><text x="318.0" y="231" text-anchor="middle" class="tiny" fill="#17202a">79</text><rect x="340" y="208" width="36" height="36" rx="4" fill="#d9dde2"/><text x="358.0" y="231" text-anchor="middle" class="tiny" fill="#17202a">80</text><rect x="380" y="208" width="36" height="36" rx="4" fill="#d9dde2"/><text x="398.0" y="231" text-anchor="middle" class="tiny" fill="#17202a">81</text><rect x="420" y="208" width="36" height="36" rx="4" fill="#d9dde2"/><text x="438.0" y="231" text-anchor="middle" class="tiny" fill="#17202a">82</text><rect x="460" y="208" width="36" height="36" rx="4" fill="#d9dde2"/><text x="478.0" y="231" text-anchor="middle" class="tiny" fill="#17202a">83</text><rect x="500" y="208" width="36" height="36" rx="4" fill="#d9dde2"/><text x="518.0" y="231" text-anchor="middle" class="tiny" fill="#17202a">84</text><rect x="540" y="208" width="36" height="36" rx="4" fill="#d9dde2"/><text x="558.0" y="231" text-anchor="middle" class="tiny" fill="#17202a">85</text><rect x="580" y="208" width="36" height="36" rx="4" fill="#d9dde2"/><text x="598.0" y="231" text-anchor="middle" class="tiny" fill="#17202a">86</text><rect x="620" y="208" width="36" height="36" rx="4" fill="#d9dde2"/><text x="638.0" y="231" text-anchor="middle" class="tiny" fill="#17202a">87</text><rect x="660" y="208" width="36" height="36" rx="4" fill="#d9dde2"/><text x="678.0" y="231" text-anchor="middle" class="tiny" fill="#17202a">88</text><rect x="700" y="208" width="36" height="36" rx="4" fill="#d9dde2"/><text x="718.0" y="231" text-anchor="middle" class="tiny" fill="#17202a">89</text><rect x="740" y="208" width="36" height="36" rx="4" fill="#d9dde2"/><text x="758.0" y="231" text-anchor="middle" class="tiny" fill="#17202a">90</text><rect x="780" y="208" width="36" height="36" rx="4" fill="#d9dde2"/><text x="798.0" y="231" text-anchor="middle" class="tiny" fill="#17202a">91</text><rect x="820" y="208" width="36" height="36" rx="4" fill="#d9dde2"/><text x="838.0" y="231" text-anchor="middle" class="tiny" fill="#17202a">92</text><rect x="860" y="208" width="36" height="36" rx="4" fill="#d9dde2"/><text x="878.0" y="231" text-anchor="middle" class="tiny" fill="#17202a">93</text><rect x="900" y="208" width="36" height="36" rx="4" fill="#d9dde2"/><text x="918.0" y="231" text-anchor="middle" class="tiny" fill="#17202a">94</text><rect x="940" y="208" width="36" height="36" rx="4" fill="#d9dde2"/><text x="958.0" y="231" text-anchor="middle" class="tiny" fill="#17202a">95</text><rect x="980" y="208" width="36" height="36" rx="4" fill="#d9dde2"/><text x="998.0" y="231" text-anchor="middle" class="tiny" fill="#17202a">96</text><rect x="60" y="266" width="16" height="16" rx="3" fill="#b03a2e"/><text x="86" y="279" class="small">testable (49 periods): two crib positions share a residue; the key fails in all 8 settings</text><rect x="60" y="292" width="16" height="16" rx="3" fill="#d9dde2"/><text x="86" y="305" class="small">not testable (47 periods): no two crib positions share a residue, so 24 letters decide nothing</text><text x="60" y="344" class="small">Keys whose first differences are periodic (progressive, Gromark type) also fail in every setting.</text></svg>