<svg xmlns="http://www.w3.org/2000/svg" width="1080" height="440" viewBox="0 0 1080 440"><rect width="100%" height="100%" fill="#fffdf8"/><style>text{font-family:Arial,sans-serif;fill:#17202a}.small{font-size:13px}.title{font-size:17px;font-weight:600}.grid{stroke:#d9dde2;stroke-width:1}</style><text x="540" y="30" text-anchor="middle" class="title">Rows with wider letters hold fewer letters: the 28 carved cipher rows</text><line x1="110" y1="294.0" x2="930" y2="294.0" class="grid"/><text x="100" y="298.0" text-anchor="end" class="small">29</text><line x1="110" y1="242.0" x2="930" y2="242.0" class="grid"/><text x="100" y="246.0" text-anchor="end" class="small">30</text><line x1="110" y1="190.0" x2="930" y2="190.0" class="grid"/><text x="100" y="194.0" text-anchor="end" class="small">31</text><line x1="110" y1="138.0" x2="930" y2="138.0" class="grid"/><text x="100" y="142.0" text-anchor="end" class="small">32</text><line x1="110" y1="86.0" x2="930" y2="86.0" class="grid"/><text x="100" y="90.0" text-anchor="end" class="small">33</text><line x1="114.2" y1="60" x2="114.2" y2="320" class="grid"/><text x="114.2" y="338" text-anchor="middle" class="small">630</text><line x1="213.1" y1="60" x2="213.1" y2="320" class="grid"/><text x="213.1" y="338" text-anchor="middle" class="small">640</text><line x1="312.1" y1="60" x2="312.1" y2="320" class="grid"/><text x="312.1" y="338" text-anchor="middle" class="small">650</text><line x1="411.0" y1="60" x2="411.0" y2="320" class="grid"/><text x="411.0" y="338" text-anchor="middle" class="small">660</text><line x1="510.0" y1="60" x2="510.0" y2="320" class="grid"/><text x="510.0" y="338" text-anchor="middle" class="small">670</text><line x1="609.0" y1="60" x2="609.0" y2="320" class="grid"/><text x="609.0" y="338" text-anchor="middle" class="small">680</text><line x1="707.9" y1="60" x2="707.9" y2="320" class="grid"/><text x="707.9" y="338" text-anchor="middle" class="small">690</text><line x1="806.9" y1="60" x2="806.9" y2="320" class="grid"/><text x="806.9" y="338" text-anchor="middle" class="small">700</text><line x1="905.9" y1="60" x2="905.9" y2="320" class="grid"/><text x="905.9" y="338" text-anchor="middle" class="small">710</text><text x="520.0" y="360" text-anchor="middle" class="small">mean letter width in the row (Arial advance, 1/1000 em)</text><text x="30" y="190.0" class="small" transform="rotate(-90 30 190.0)" text-anchor="middle">letters in the row</text><circle cx="357.5" cy="138.0" r="6" fill="#1f6f5c" fill-opacity="0.85"/><circle cx="673.1" cy="190.0" r="6" fill="#1f6f5c" fill-opacity="0.85"/><circle cx="690.1" cy="190.0" r="6" fill="#1f6f5c" fill-opacity="0.85"/><circle cx="880.5" cy="242.0" r="6" fill="#1f6f5c" fill-opacity="0.85"/><circle cx="548.7" cy="190.0" r="6" fill="#1f6f5c" fill-opacity="0.85"/><circle cx="477.7" cy="138.0" r="6" fill="#1f6f5c" fill-opacity="0.85"/><circle cx="353.0" cy="190.0" r="6" fill="#1f6f5c" fill-opacity="0.85"/><circle cx="689.8" cy="190.0" r="6" fill="#1f6f5c" fill-opacity="0.85"/><circle cx="426.7" cy="138.0" r="6" fill="#1f6f5c" fill-opacity="0.85"/><circle cx="459.8" cy="190.0" r="6" fill="#1f6f5c" fill-opacity="0.85"/><circle cx="843.8" cy="242.0" r="6" fill="#1f6f5c" fill-opacity="0.85"/><circle cx="584.5" cy="190.0" r="6" fill="#1f6f5c" fill-opacity="0.85"/><circle cx="690.9" cy="190.0" r="6" fill="#1f6f5c" fill-opacity="0.85"/><circle cx="725.9" cy="190.0" r="6" fill="#1f6f5c" fill-opacity="0.85"/><circle cx="375.2" cy="138.0" r="6" fill="#9aa5b1" fill-opacity="0.85"/><circle cx="753.2" cy="242.0" r="6" fill="#9aa5b1" fill-opacity="0.85"/><circle cx="159.5" cy="190.0" r="6" fill="#9aa5b1" fill-opacity="0.85"/><circle cx="770.2" cy="242.0" r="6" fill="#9aa5b1" fill-opacity="0.85"/><circle cx="443.4" cy="138.0" r="6" fill="#9aa5b1" fill-opacity="0.85"/><circle cx="569.7" cy="242.0" r="6" fill="#9aa5b1" fill-opacity="0.85"/><circle cx="391.4" cy="138.0" r="6" fill="#9aa5b1" fill-opacity="0.85"/><circle cx="442.1" cy="190.0" r="6" fill="#9aa5b1" fill-opacity="0.85"/><circle cx="211.4" cy="86.0" r="6" fill="#9aa5b1" fill-opacity="0.85"/><circle cx="818.9" cy="294.0" r="6" fill="#9aa5b1" fill-opacity="0.85"/><circle cx="513.0" cy="190.0" r="7" fill="#b03a2e" fill-opacity="0.85"/><circle cx="691.2" cy="190.0" r="7" fill="#b03a2e" fill-opacity="0.85"/><circle cx="388.6" cy="190.0" r="7" fill="#b03a2e" fill-opacity="0.85"/><circle cx="565.8" cy="190.0" r="7" fill="#b03a2e" fill-opacity="0.85"/><circle cx="120" cy="386" r="6" fill="#1f6f5c"/><text x="132" y="391" class="small">upper plate (K1, K2)</text><circle cx="370" cy="386" r="6" fill="#9aa5b1"/><text x="382" y="391" class="small">lower plate (K3)</text><circle cx="620" cy="386" r="6" fill="#b03a2e"/><text x="632" y="391" class="small">rows holding K4 (24-27)</text><text x="110" y="418" class="small">Spearman rho = -0.74 (re-breaking the same text at random: mean -0.02, P &lt;= 1e-5). K4's rows sit on the same trend: the layout follows letter widths,</text><text x="110" y="438" class="small">not plaintext words or a cipher grid, even in K1-K3 where the methods are known.</text></svg>