<svg xmlns="http://www.w3.org/2000/svg" width="1080" height="420" viewBox="0 0 1080 420"><rect width="100%" height="100%" fill="#fffdf8"/><style>text{font-family:Arial,sans-serif;fill:#17202a}.small{font-size:13px}.title{font-size:17px;font-weight:600}.grid{stroke:#d9dde2;stroke-width:1}</style><text x="540" y="30" text-anchor="middle" class="title">Portax with a free substitution: K4 is inconsistent at every period P = 1..48 (96 exact proofs)</text><line x1="90" y1="270.0" x2="1010" y2="270.0" class="grid"/><text x="82" y="274.0" text-anchor="end" class="small">0%</text><line x1="90" y1="220.0" x2="1010" y2="220.0" class="grid"/><text x="82" y="224.0" text-anchor="end" class="small">10%</text><line x1="90" y1="170.0" x2="1010" y2="170.0" class="grid"/><text x="82" y="174.0" text-anchor="end" class="small">20%</text><line x1="90" y1="120.0" x2="1010" y2="120.0" class="grid"/><text x="82" y="124.0" text-anchor="end" class="small">30%</text><line x1="90" y1="70.0" x2="1010" y2="70.0" class="grid"/><text x="82" y="74.0" text-anchor="end" class="small">40%</text><rect x="92.0" y="270.0" width="7.6" height="0.0" fill="#5d6d7e"/><rect x="99.6" y="270.0" width="7.6" height="0.0" fill="#d68910"/><text x="99.6" y="288" text-anchor="middle" class="small">1</text><rect x="111.2" y="270.0" width="7.6" height="0.0" fill="#5d6d7e"/><rect x="118.8" y="270.0" width="7.6" height="0.0" fill="#d68910"/><rect x="130.3" y="270.0" width="7.6" height="0.0" fill="#5d6d7e"/><rect x="137.9" y="270.0" width="7.6" height="0.0" fill="#d68910"/><rect x="149.5" y="270.0" width="7.6" height="0.0" fill="#5d6d7e"/><rect x="157.1" y="270.0" width="7.6" height="0.0" fill="#d68910"/><text x="157.1" y="288" text-anchor="middle" class="small">4</text><rect x="168.7" y="270.0" width="7.6" height="0.0" fill="#5d6d7e"/><rect x="176.3" y="270.0" width="7.6" height="0.0" fill="#d68910"/><rect x="187.8" y="270.0" width="7.6" height="0.0" fill="#5d6d7e"/><rect x="195.4" y="270.0" width="7.6" height="0.0" fill="#d68910"/><rect x="207.0" y="270.0" width="7.6" height="0.0" fill="#5d6d7e"/><rect x="214.6" y="270.0" width="7.6" height="0.0" fill="#d68910"/><rect x="226.2" y="270.0" width="7.6" height="0.0" fill="#5d6d7e"/><rect x="233.8" y="270.0" width="7.6" height="0.0" fill="#d68910"/><text x="233.8" y="288" text-anchor="middle" class="small">8</text><rect x="245.3" y="270.0" width="7.6" height="0.0" fill="#5d6d7e"/><rect x="252.9" y="270.0" width="7.6" height="0.0" fill="#d68910"/><rect x="264.5" y="270.0" width="7.6" height="0.0" fill="#5d6d7e"/><rect x="272.1" y="270.0" width="7.6" height="0.0" fill="#d68910"/><rect x="283.7" y="270.0" width="7.6" height="0.0" fill="#5d6d7e"/><rect x="291.2" y="270.0" width="7.6" height="0.0" fill="#d68910"/><rect x="302.8" y="270.0" width="7.6" height="0.0" fill="#5d6d7e"/><rect x="310.4" y="270.0" width="7.6" height="0.0" fill="#d68910"/><text x="310.4" y="288" text-anchor="middle" class="small">12</text><rect x="322.0" y="260.0" width="7.6" height="10.0" fill="#5d6d7e"/><rect x="329.6" y="270.0" width="7.6" height="0.0" fill="#d68910"/><rect x="341.2" y="260.0" width="7.6" height="10.0" fill="#5d6d7e"/><rect x="348.8" y="270.0" width="7.6" height="0.0" fill="#d68910"/><rect x="360.3" y="220.0" width="7.6" height="50.0" fill="#5d6d7e"/><rect x="367.9" y="270.0" width="7.6" height="0.0" fill="#d68910"/><rect x="379.5" y="250.0" width="7.6" height="20.0" fill="#5d6d7e"/><rect x="387.1" y="270.0" width="7.6" height="0.0" fill="#d68910"/><text x="387.1" y="288" text-anchor="middle" class="small">16</text><rect x="398.7" y="225.0" width="7.6" height="45.0" fill="#5d6d7e"/><rect x="406.2" y="270.0" width="7.6" height="0.0" fill="#d68910"/><rect x="417.8" y="182.5" width="7.6" height="87.5" fill="#5d6d7e"/><rect x="425.4" y="270.0" width="7.6" height="0.0" fill="#d68910"/><rect x="437.0" y="232.5" width="7.6" height="37.5" fill="#5d6d7e"/><rect x="444.6" y="270.0" width="7.6" height="0.0" fill="#d68910"/><rect x="456.2" y="252.5" width="7.6" height="17.5" fill="#5d6d7e"/><rect x="463.8" y="270.0" width="7.6" height="0.0" fill="#d68910"/><text x="463.8" y="288" text-anchor="middle" class="small">20</text><rect x="475.3" y="257.5" width="7.6" height="12.5" fill="#5d6d7e"/><rect x="482.9" y="270.0" width="7.6" height="0.0" fill="#d68910"/><rect x="494.5" y="222.5" width="7.6" height="47.5" fill="#5d6d7e"/><rect x="502.1" y="270.0" width="7.6" height="0.0" fill="#d68910"/><rect x="513.7" y="147.5" width="7.6" height="122.5" fill="#5d6d7e"/><rect x="521.3" y="270.0" width="7.6" height="0.0" fill="#d68910"/><rect x="532.8" y="117.5" width="7.6" height="152.5" fill="#5d6d7e"/><rect x="540.4" y="270.0" width="7.6" height="0.0" fill="#d68910"/><text x="540.4" y="288" text-anchor="middle" class="small">24</text><rect x="552.0" y="105.0" width="7.6" height="165.0" fill="#5d6d7e"/><rect x="559.6" y="270.0" width="7.6" height="0.0" fill="#d68910"/><rect x="571.2" y="85.0" width="7.6" height="185.0" fill="#5d6d7e"/><rect x="578.8" y="270.0" width="7.6" height="0.0" fill="#d68910"/><rect x="590.3" y="110.0" width="7.6" height="160.0" fill="#5d6d7e"/><rect x="597.9" y="270.0" width="7.6" height="0.0" fill="#d68910"/><rect x="609.5" y="162.5" width="7.6" height="107.5" fill="#5d6d7e"/><rect x="617.1" y="270.0" width="7.6" height="0.0" fill="#d68910"/><text x="617.1" y="288" text-anchor="middle" class="small">28</text><rect x="628.7" y="170.0" width="7.6" height="100.0" fill="#5d6d7e"/><rect x="636.3" y="270.0" width="7.6" height="0.0" fill="#d68910"/><rect x="647.8" y="192.5" width="7.6" height="77.5" fill="#5d6d7e"/><rect x="655.4" y="270.0" width="7.6" height="0.0" fill="#d68910"/><rect x="667.0" y="187.5" width="7.6" height="82.5" fill="#5d6d7e"/><rect x="674.6" y="270.0" width="7.6" height="0.0" fill="#d68910"/><rect x="686.2" y="225.0" width="7.6" height="45.0" fill="#5d6d7e"/><rect x="693.8" y="270.0" width="7.6" height="0.0" fill="#d68910"/><text x="693.8" y="288" text-anchor="middle" class="small">32</text><rect x="705.3" y="265.0" width="7.6" height="5.0" fill="#5d6d7e"/><rect x="712.9" y="270.0" width="7.6" height="0.0" fill="#d68910"/><rect x="724.5" y="270.0" width="7.6" height="0.0" fill="#5d6d7e"/><rect x="732.1" y="270.0" width="7.6" height="0.0" fill="#d68910"/><rect x="743.7" y="270.0" width="7.6" height="0.0" fill="#5d6d7e"/><rect x="751.3" y="270.0" width="7.6" height="0.0" fill="#d68910"/><rect x="762.8" y="270.0" width="7.6" height="0.0" fill="#5d6d7e"/><rect x="770.4" y="270.0" width="7.6" height="0.0" fill="#d68910"/><text x="770.4" y="288" text-anchor="middle" class="small">36</text><rect x="782.0" y="270.0" width="7.6" height="0.0" fill="#5d6d7e"/><rect x="789.6" y="270.0" width="7.6" height="0.0" fill="#d68910"/><rect x="801.2" y="270.0" width="7.6" height="0.0" fill="#5d6d7e"/><rect x="808.8" y="270.0" width="7.6" height="0.0" fill="#d68910"/><rect x="820.3" y="270.0" width="7.6" height="0.0" fill="#5d6d7e"/><rect x="827.9" y="270.0" width="7.6" height="0.0" fill="#d68910"/><rect x="839.5" y="270.0" width="7.6" height="0.0" fill="#5d6d7e"/><rect x="847.1" y="270.0" width="7.6" height="0.0" fill="#d68910"/><text x="847.1" y="288" text-anchor="middle" class="small">40</text><rect x="858.7" y="270.0" width="7.6" height="0.0" fill="#5d6d7e"/><rect x="866.3" y="270.0" width="7.6" height="0.0" fill="#d68910"/><rect x="877.8" y="270.0" width="7.6" height="0.0" fill="#5d6d7e"/><rect x="885.4" y="270.0" width="7.6" height="0.0" fill="#d68910"/><rect x="897.0" y="270.0" width="7.6" height="0.0" fill="#5d6d7e"/><rect x="904.6" y="270.0" width="7.6" height="0.0" fill="#d68910"/><rect x="916.2" y="270.0" width="7.6" height="0.0" fill="#5d6d7e"/><rect x="923.8" y="270.0" width="7.6" height="0.0" fill="#d68910"/><text x="923.8" y="288" text-anchor="middle" class="small">44</text><rect x="935.3" y="270.0" width="7.6" height="0.0" fill="#5d6d7e"/><rect x="942.9" y="270.0" width="7.6" height="0.0" fill="#d68910"/><rect x="954.5" y="270.0" width="7.6" height="0.0" fill="#5d6d7e"/><rect x="962.1" y="267.5" width="7.6" height="2.5" fill="#d68910"/><rect x="973.7" y="270.0" width="7.6" height="0.0" fill="#5d6d7e"/><rect x="981.3" y="270.0" width="7.6" height="0.0" fill="#d68910"/><rect x="992.8" y="270.0" width="7.6" height="0.0" fill="#5d6d7e"/><rect x="1000.4" y="270.0" width="7.6" height="0.0" fill="#d68910"/><text x="1000.4" y="288" text-anchor="middle" class="small">48</text><text x="550.0" y="308" text-anchor="middle" class="small">period P</text><text x="30" y="56" class="small">share of 200 shuffles consistent</text><rect x="650" y="44" width="12" height="12" fill="#5d6d7e"/><text x="668" y="55" class="small">substitution after (up to 37%, P = 26)</text><rect x="650" y="62" width="12" height="12" fill="#d68910"/><text x="668" y="73" class="small">substitution before (1 of 9,600 overall)</text><text x="60" y="345" class="small">K4: inconsistent at all 48 periods in both layers. Planted texts: 20/20 consistent at every period.</text><text x="60" y="365" class="small">Free-square Playfair followed by a shift mask: K4 inconsistent in m1 (6), m2 p <= 5 (60), m3 (7,680) and</text><text x="60" y="385" class="small">m4 (15,660) settings; m2 p = 6..12 undecidable. Shuffles mostly fail too: logical refutations, not rarer than random.</text></svg>