<svg xmlns="http://www.w3.org/2000/svg" width="1080" height="440" viewBox="0 0 1080 440"><rect width="100%" height="100%" fill="#fffdf8"/><style>text{font-family:Arial,sans-serif;fill:#17202a}.small{font-size:13px}.title{font-size:17px;font-weight:600}.grid{stroke:#d9dde2;stroke-width:1}</style><text x="540" y="30" text-anchor="middle" class="title">Only the lag-21 pair count stands out: K4 against 20,000 permutations of its letters</text><line x1="90" y1="320.0" x2="990" y2="320.0" class="grid"/><text x="82" y="324.0" text-anchor="end" class="small">0</text><line x1="90" y1="278.3" x2="990" y2="278.3" class="grid"/><text x="82" y="282.3" text-anchor="end" class="small">2</text><line x1="90" y1="236.7" x2="990" y2="236.7" class="grid"/><text x="82" y="240.7" text-anchor="end" class="small">4</text><line x1="90" y1="195.0" x2="990" y2="195.0" class="grid"/><text x="82" y="199.0" text-anchor="end" class="small">6</text><line x1="90" y1="153.3" x2="990" y2="153.3" class="grid"/><text x="82" y="157.3" text-anchor="end" class="small">8</text><line x1="90" y1="111.7" x2="990" y2="111.7" class="grid"/><text x="82" y="115.7" text-anchor="end" class="small">10</text><line x1="90" y1="70.0" x2="990" y2="70.0" class="grid"/><text x="82" y="74.0" text-anchor="end" class="small">12</text><rect x="104.0" y="132.5" width="30.0" height="187.5" fill="#1f6f5c"/><line x1="101.0" y1="217.9" x2="137.0" y2="217.9" stroke="#17202a" stroke-width="2"/><rect x="146.0" y="132.5" width="30.0" height="187.5" fill="#9aa5b1"/><line x1="143.0" y1="251.2" x2="179.0" y2="251.2" stroke="#17202a" stroke-width="2"/><text x="140.0" y="338" text-anchor="middle" class="small">lag 7</text><rect x="204.0" y="174.2" width="30.0" height="145.8" fill="#1f6f5c"/><line x1="201.0" y1="234.6" x2="237.0" y2="234.6" stroke="#17202a" stroke-width="2"/><rect x="246.0" y="278.3" width="30.0" height="41.7" fill="#9aa5b1"/><line x1="243.0" y1="257.5" x2="279.0" y2="257.5" stroke="#17202a" stroke-width="2"/><text x="240.0" y="338" text-anchor="middle" class="small">lag 14</text><rect x="304.0" y="257.5" width="30.0" height="62.5" fill="#1f6f5c"/><line x1="301.0" y1="245.0" x2="337.0" y2="245.0" stroke="#17202a" stroke-width="2"/><rect x="346.0" y="236.7" width="30.0" height="83.3" fill="#9aa5b1"/><line x1="343.0" y1="261.7" x2="379.0" y2="261.7" stroke="#17202a" stroke-width="2"/><text x="340.0" y="338" text-anchor="middle" class="small">lag 20</text><rect x="404.0" y="90.8" width="30.0" height="229.2" fill="#b03a2e"/><line x1="401.0" y1="247.1" x2="437.0" y2="247.1" stroke="#17202a" stroke-width="2"/><rect x="446.0" y="257.5" width="30.0" height="62.5" fill="#9aa5b1"/><line x1="443.0" y1="263.8" x2="479.0" y2="263.8" stroke="#17202a" stroke-width="2"/><text x="440.0" y="338" text-anchor="middle" class="small">lag 21</text><rect x="504.0" y="257.5" width="30.0" height="62.5" fill="#1f6f5c"/><line x1="501.0" y1="249.2" x2="537.0" y2="249.2" stroke="#17202a" stroke-width="2"/><rect x="546.0" y="278.3" width="30.0" height="41.7" fill="#9aa5b1"/><line x1="543.0" y1="263.8" x2="579.0" y2="263.8" stroke="#17202a" stroke-width="2"/><text x="540.0" y="338" text-anchor="middle" class="small">lag 22</text><rect x="604.0" y="215.8" width="30.0" height="104.2" fill="#1f6f5c"/><line x1="601.0" y1="259.6" x2="637.0" y2="259.6" stroke="#17202a" stroke-width="2"/><rect x="646.0" y="236.7" width="30.0" height="83.3" fill="#9aa5b1"/><line x1="643.0" y1="267.9" x2="679.0" y2="267.9" stroke="#17202a" stroke-width="2"/><text x="640.0" y="338" text-anchor="middle" class="small">lag 28</text><rect x="704.0" y="236.7" width="30.0" height="83.3" fill="#1f6f5c"/><line x1="701.0" y1="272.1" x2="737.0" y2="272.1" stroke="#17202a" stroke-width="2"/><rect x="746.0" y="299.2" width="30.0" height="20.8" fill="#9aa5b1"/><line x1="743.0" y1="274.2" x2="779.0" y2="274.2" stroke="#17202a" stroke-width="2"/><text x="740.0" y="338" text-anchor="middle" class="small">lag 35</text><rect x="804.0" y="257.5" width="30.0" height="62.5" fill="#1f6f5c"/><line x1="801.0" y1="282.5" x2="837.0" y2="282.5" stroke="#17202a" stroke-width="2"/><rect x="846.0" y="257.5" width="30.0" height="62.5" fill="#9aa5b1"/><line x1="843.0" y1="278.3" x2="879.0" y2="278.3" stroke="#17202a" stroke-width="2"/><text x="840.0" y="338" text-anchor="middle" class="small">lag 42</text><rect x="904.0" y="320.0" width="30.0" height="0.0" fill="#1f6f5c"/><line x1="901.0" y1="305.4" x2="937.0" y2="305.4" stroke="#17202a" stroke-width="2"/><rect x="946.0" y="320.0" width="30.0" height="0.0" fill="#9aa5b1"/><line x1="943.0" y1="295.0" x2="979.0" y2="295.0" stroke="#17202a" stroke-width="2"/><text x="940.0" y="338" text-anchor="middle" class="small">lag 63</text><rect x="90" y="354" width="14" height="14" fill="#1f6f5c"/><text x="110" y="366" class="small">R: pair types seen twice or more (red: lag 21)</text><rect x="420" y="354" width="14" height="14" fill="#9aa5b1"/><text x="440" y="366" class="small">kappa: equal letters at that distance</text><rect x="750" y="354" width="14" height="14" fill="#17202a"/><text x="770" y="366" class="small">black tick: permutation mean</text><text x="90" y="396" class="small">R at 21 is 11 against 3.5 (P = 0.0001; paid over widths 2-48 about 0.001-0.003). The column period (kappa at 21), two and three rows apart (42, 63) and the diagonals (20, 22)</text><text x="90" y="416" class="small">are at chance, so nothing in K4 besides this one pair table points to 21.</text></svg>