<svg xmlns="http://www.w3.org/2000/svg" width="1080" height="480" viewBox="0 0 1080 480"><rect width="100%" height="100%" fill="#fffdf8"/><style>text{font-family:Arial,sans-serif;fill:#17202a}.small{font-size:13px}.title{font-size:17px;font-weight:600}.grid{stroke:#d9dde2;stroke-width:1}</style><text x="540" y="30" text-anchor="middle" class="title">Expected chance hits of K4's W-gap reading family, by target list (closed form)</text><line x1="470.0" y1="52" x2="470.0" y2="304" class="grid"/><text x="470.0" y="322" text-anchor="middle" class="small">0</text><line x1="556.7" y1="52" x2="556.7" y2="304" class="grid"/><text x="556.7" y="322" text-anchor="middle" class="small">0.01</text><line x1="643.3" y1="52" x2="643.3" y2="304" class="grid"/><text x="643.3" y="322" text-anchor="middle" class="small">0.02</text><line x1="730.0" y1="52" x2="730.0" y2="304" class="grid"/><text x="730.0" y="322" text-anchor="middle" class="small">0.03</text><line x1="816.7" y1="52" x2="816.7" y2="304" class="grid"/><text x="816.7" y="322" text-anchor="middle" class="small">0.04</text><line x1="903.3" y1="52" x2="903.3" y2="304" class="grid"/><text x="903.3" y="322" text-anchor="middle" class="small">0.05</text><line x1="990.0" y1="52" x2="990.0" y2="304" class="grid"/><text x="990.0" y="322" text-anchor="middle" class="small">0.06</text><text x="460" y="75" text-anchor="end" class="small">World Clock place names (146), the list EP-0011 used</text><rect x="470" y="58" width="17.37" height="24" fill="#1f6f5c"/><text x="493.4" y="75" class="small">0.0020</text><text x="460" y="111" text-anchor="end" class="small">English words (2,541)</text><rect x="470" y="94" width="152.87" height="24" fill="#9aa5b1"/><text x="628.9" y="111" class="small">0.0176</text><text x="460" y="147" text-anchor="end" class="small">Words of the K1-K3 plaintexts (107)</text><rect x="470" y="130" width="177.35" height="24" fill="#9aa5b1"/><text x="653.4" y="147" class="small">0.0205</text><text x="460" y="183" text-anchor="end" class="small">Compass points (24)</text><rect x="470" y="166" width="96.53" height="24" fill="#9aa5b1"/><text x="572.5" y="183" class="small">0.0111</text><text x="460" y="219" text-anchor="end" class="small">Theme words (135)</text><rect x="470" y="202" width="27.35" height="24" fill="#9aa5b1"/><text x="503.3" y="219" class="small">0.0032</text><text x="460" y="255" text-anchor="end" class="small">National capitals (207)</text><rect x="470" y="238" width="6.78" height="24" fill="#9aa5b1"/><text x="482.8" y="255" class="small">0.0008</text><text x="460" y="291" text-anchor="end" class="small">Union of the six lists (3,036 words)</text><rect x="470" y="274" width="466.89" height="24" fill="#c9a227"/><text x="942.9" y="291" class="small">0.0539</text><text x="55" y="372" class="small">World Clock share of the union: 3.7%.</text><text x="55" y="394" class="small">Adding the other markers in K1-K4 (question marks, section boundaries, misspellings, ...): 1 hit (TOKIO) against 0.211 expected, P(at least 1) = 0.19.</text><text x="55" y="416" class="small">The public rerun recomputes every list except the K1-K3 words, which this site does not publish.</text></svg>